<?xml version="1.0" standalone="no"?>
<!DOCTYPE svg PUBLIC "-//W3C//DTD SVG 1.1//EN" "http://www.w3.org/Graphics/SVG/1.1/DTD/svg11.dtd" >
<!--
2013-9-30: Created.
-->
<svg>
<metadata>
Created by iconfont
</metadata>
<defs>

<font id="iconfont" horiz-adv-x="1024" >
  <font-face
    font-family="iconfont"
    font-weight="500"
    font-stretch="normal"
    units-per-em="1024"
    ascent="896"
    descent="-128"
  />
    <missing-glyph />
    
    <glyph glyph-name="dianliang" unicode="&#58929;" d="M-579.19509967 878.30214398L-579.19509967 875.81663049ZM314.03133671 741.31306844l422.25642883 0 0-110.15298648-422.25642883 0 0 110.15298648ZM314.03133671 571.6767733300001l422.25642883 0 0-110.15298647-422.25642883 0 0 110.15298647ZM314.03133671 402.04047822l422.25642883 0 0-110.15050095-422.25642883 0 0 110.15050095ZM314.03133671 232.40418309999995l422.25642883 0 0-110.15050095-422.25642883 0 0 110.15050095ZM314.03133671 62.76788799999997l422.25642883 0 0-110.15050096-422.25642883 0 0 110.15050096ZM643.07852447 844.40471111L643.07852447 896.66014655l-235.8404322 0 0-52.25294992-184.29585362 0 0-987.14156329 604.43462496 0L827.37686361 844.40471111 643.07852447 844.40471111zM766.64831271-80.60150064000004L283.67078954-80.60150064000004l0 862.87086023 482.97752317 0L766.64831271-80.60150064000004z"  horiz-adv-x="1024" />

    
    <glyph glyph-name="xiuyixiu" unicode="&#58885;" d="M512.13796921 893.15321173c-280.94672441 0-509.50366549-228.54296917-509.5036655-509.48852963 0-263.72912925 197.72757106-481.75385714 459.95476082-507.11453127 2.01190173-0.21073693 4.00983267-0.30038813 5.99495566-0.30038813 31.30789433 0 58.09482979 23.79702613 61.17439034 55.61837455 3.27632669 33.83325013-21.49870819 63.91048419-55.33079325 67.18680974-198.79639495 19.22949689-348.71801059 184.580352-348.71801059 384.60973511 0 213.06832327 173.34141155 386.41206386 386.42719971 386.41206385 213.06599424 0 386.39459897-173.34374059 386.39459897-386.41206385 0-61.77865955-14.12173483-120.7618469-41.98913707-175.32769849-15.45834496-30.25769927-3.45562795-67.33816832 26.81604324-82.78370646 30.27400021-15.47115293 67.33816832-3.45562795 82.79884231 26.80323642 36.7940517 72.05589219 55.45071616 149.87853824 55.45071616 231.30816966C1021.60903395 664.6102437 793.06839381 893.15321173 512.13796921 893.15321173zM753.71871346 297.57787136c27.52393557-3.90620957 52.69017259 15.02173525 56.64178972 42.33609671 2.08525198 14.45355861 3.13777493 29.17723363 3.13777493 43.77982294 0 167.78655971-136.52058112 304.29316893-304.32227669 304.29316892-167.83080334 0-304.36651918-136.50544526-304.36651918-304.29316892 0-127.16081266 80.13609984-242.00338432 199.40997803-285.81231389 5.67943168-2.07244515 11.5102208-3.06442467 17.23389496-3.06442467 20.35653518 0 39.4987099 12.52781511 46.93389768 32.77956323 9.52393387 25.90323598-3.77115193 54.62756011-29.70349568 64.15265792-80.07439246 29.41940736-133.8753024 106.54929693-133.8753024 191.94451854 0 112.64903965 91.67542841 204.2941952 204.36871054 204.2941952 112.66533945 0 204.32330297-91.64399161 204.32330297-204.2941952 0-9.85575765-0.70672725-19.74062307-2.11785273-29.47645781C707.43099961 326.90529962999994 726.39270912 301.54346040999997 753.71871346 297.57787136zM579.74392605 412.5985792c-25.06028715 36.74864526-66.75136398 39.75369045-95.07167688 23.31850183-25.67387022-14.87386965-41.99030101-45.49250048-26.26183964-83.41242652 10.08279552-24.24993792 166.13209657-368.05345963 187.63546169-410.45126372 28.01643179-55.22833635 96.69237533-70.01138973 142.09173276-43.89858076 41.66197021 23.97516345 68.69107939 85.09483235 30.57555229 144.97918407C780.61276501 103.01834695000002 595.70058923 389.25446371 579.74392605 412.5985792z"  horiz-adv-x="1024" />

    
    <glyph glyph-name="fukuanma" unicode="&#58937;" d="M189.88205625 555.3900532600001l27.26895388 0c7.52250994 0 13.63389554 6.11254955 13.63389554 13.63505949L230.78490567 868.98477511c0 7.52250994-6.11138446 13.63505949-13.63389554 13.63505948l-27.26895388 0c-7.52250994 0-13.63389554-6.11254955-13.63389554-13.63505948L176.24816071 569.0251127500001C176.24816071 561.50260167 182.35954517 555.3900532600001 189.88205625 555.3900532600001zM339.86305138 555.3900532600001l81.80686279 0c7.52367502 0 13.63505949 6.11254955 13.63505948 13.63505949L435.30497365 868.98477511c0 7.52250994-6.11138446 13.63505949-13.63505948 13.63505948l-81.80686279 0c-7.52250994 0-13.63505949-6.11254955-13.63505949-13.63505948L326.22799189 569.0251127500001C326.22799189 561.50260167 332.33937635 555.3900532600001 339.86305138 555.3900532600001zM803.43644046 555.3900532600001l27.27011897 0c7.52134599 0 13.63273045 6.11254955 13.63273046 13.63505949L844.33929102 868.98477511c0 7.52250994-6.11138446 13.63505949-13.63273045 13.63505948l-27.27011897 0c-7.52250994 0-13.63389554-6.11254955-13.63389554-13.63505948L789.80254606 569.0251127500001C789.80254606 561.50260167 795.91393053 555.3900532600001 803.43644046 555.3900532600001zM694.36062379 391.77632654l0-245.42175459c0-22.58266681 18.33415453-40.90401337 40.90401336-40.90401337s40.90401337 18.32018261 40.90401338 40.90401337l0 245.42175459c0 22.58266681-18.33415453 40.90401337-40.90401338 40.90401337S694.36062379 414.35899335 694.36062379 391.77632654zM926.14731776 555.3900532600001l68.17413234 0c7.52250994 0 13.63389554 6.11254955 13.63389553 13.63505949L1007.95534563 868.98477511c0 7.52250994-6.11138446 13.63505949-13.63389553 13.63505948l-68.17413234 0c-7.52134599 0-13.63389554-6.11254955-13.63389554-13.63505948L912.51342336 569.0251127500001C912.51342336 561.50260167 918.62597177 555.3900532600001 926.14731776 555.3900532600001zM721.62957767 569.0251127500001L721.62957767 868.98477511c0 7.52250994-6.11254955 13.63505949-13.63389554 13.63505948L626.18765539 882.61983459c-7.52250994 0-13.63389554-6.11254955-13.63389553-13.63505948L612.55375986 569.0251127500001c0-7.52250994 6.11138446-13.63505949 13.63389553-13.63505949l81.80802788 0C715.51702926 555.3900532600001 721.62957767 561.50260167 721.62957767 569.0251127500001zM520.13434766 432.68033991L23.24581945 432.68033991c-13.39521479 0-24.24644494-10.85123015-24.24644494-24.24644494l0-496.88852822c0-13.39405085 10.85123015-24.24644494 24.24644494-24.24644494l496.88852821 0c13.39405085 0 24.24527986 10.8523941 24.24527986 24.24644494L544.37962752 408.43389611C544.37962752 421.8291109 533.52839737 432.68033991 520.13434766 432.68033991zM462.57276473-30.894213120000018L80.80623843-30.894213120000018 80.80623843 350.87347711999996l381.7665263 0L462.57276473-30.894213120000018zM980.68639175 214.52637639c-22.58266681 0-40.90401337-18.32018261-40.90401337-40.90401337l0-204.51657614L735.26463715-30.894213120000018c-22.56985998 0-40.90401337-18.32134656-40.90401336-40.90401337s18.33415453-40.90401337 40.90401336-40.90401337l245.4217546 0c22.58266681 0 40.90401337 18.32134656 40.90401337 40.90401337L1021.59040512 173.62236301999997C1021.59040512 196.20619378000004 1003.26789347 214.52637639 980.68639175 214.52637639zM26.26832953 555.3900532600001l68.17180444 0c7.52367502 0 13.63505949 6.11254955 13.63505949 13.63505949L108.07519232 868.98477511c0 7.52250994-6.11138446 13.63505949-13.63505949 13.63505948L26.26832953 882.61983459c-7.52250994 0-13.63505949-6.11254955-13.63505948-13.63505948L12.63327005 569.0251127500001C12.63327005 561.50260167 18.74465451 555.3900532600001 26.26832953 555.3900532600001zM980.68639175 432.68033991c-22.58266681 0-40.90401337-18.32134656-40.90401337-40.90401337l0-54.53790891c0-22.58266681 18.32134656-40.90401337 40.90401337-40.90401336s40.90401337 18.32134656 40.90401337 40.90401336l0 54.53790891C1021.59040512 414.35899335 1003.26789347 432.68033991 980.68639175 432.68033991zM217.15217408 78.18160468999997l109.07581781 0c15.06015687 0 27.26895389 12.22393401 27.26895389 27.27011897l0 109.07581781c0 15.04618496-12.2099621 27.27011897-27.26895389 27.27011898l-109.07581781 0c-15.06015687 0-27.26895389-12.22393401-27.26895389-27.27011898l0-109.07581781C189.88205625 90.40553756999998 202.09201835 78.18160468999997 217.15217408 78.18160468999997zM523.92878535 555.3900532600001c11.29016889 0 20.45084217 6.11254955 20.45084217 13.63505949L544.37962752 868.98477511c0 7.52250994-9.16067328 13.63505949-20.45084217 13.63505948s-20.45084217-6.11254955-20.45084217-13.63505948L503.47794205 569.0251127500001C503.47794205 561.50260167 512.63861533 555.3900532600001 523.92878535 555.3900532600001z"  horiz-adv-x="1024" />

    
    <glyph glyph-name="fuwuchuang" unicode="&#58981;" d="M656.11609125 205.92412445000002l-150.97431228 79.53764503-149.26309452-82.91396266 26.84306014 172.39608888-122.75378251 120.51099497 167.58768829 27.00690015 73.39910638 157.45994903 76.71959703-155.74873126 168.10954904-23.21430756-120.17724682-123.240448 30.50943525-171.79412858zM903.84338489 892.55571911h-789.45757867c-31.92088652 0-54.48711585-34.68310755-54.48711585-67.56154786v-883.99447228c0-85.92012325 80.79617897-68.90260859 110.02038045-55.63035497l288.49189926 131.14603141c29.22662875 13.27346725 76.67347911 13.45793897 105.99113007 0.46239289l307.43180326-136.18623527c29.29337837-13.041664 93.60482608-7.03055645 93.60482607 68.94872652v875.2539117c0 32.87965392-29.67809897 67.56154785-61.59534459 67.56154786z"  horiz-adv-x="1024" />

    
    <glyph glyph-name="yingyuan" unicode="&#58911;" d="M44.9575936-33.01446720000001l934.0848128 0 0-42.45820267-934.0848128 0 0 42.45820267ZM214.79149333 136.65024640000001l594.41701334 0 0-42.45820267-594.41701334 0 0 42.45820267ZM762.04800747 656.2289194699999c-79.09201813-23.3870496-163.045696-35.98981547-250.0436416-35.98981547-91.27236373 0-179.19701547 13.86347947-261.6694912 39.50889707 11.49377493-3.69590933 30.5529216-9.6894816 32.3517568-9.3805792-2.43410453-14.83493867-5.1323584-29.5803712-8.0740224-44.23739094 75.63515307-19.94874027 155.2270912-30.6064064 237.3906656-30.6064064 82.16139093 0 161.74896213 10.65657387 237.3819328 30.60422294-2.941664 14.65811093-5.63991787 29.40354347-8.0740224 44.23739093C742.43654933 650.3139370700001 752.28430187 653.23377067 762.04800747 656.2289194699999zM894.12491093 879.6720576L129.87399787 879.6720576c-46.89853227 0-84.91640427-38.017872-84.91640427-84.91640427l0-627.7762496 0-73.00239146c111.820352 148.79254187 191.67862187 322.892128 229.65610773 512.1519264 2.941664 14.65811093 5.63991787 29.40354347 8.0740224 44.23739093-1.79883627-0.30781013-20.85907307 5.68467093-32.3517568 9.3805792-5.06359147 1.62855787-8.66453867 2.812864-8.66453866 2.812864-0.00327467-0.0229216-0.00764053-0.04584427-0.0109152-0.06767467 0-0.0010912 0-0.00327467-0.0010912-0.00436586-24.65540267-154.18795733-77.92190187-298.80322667-154.2436256-428.2626496L87.4157952 773.52655253c0 35.1733536 28.51394987 63.68730347 63.68730347 63.68730347l105.8933632 0c0-0.00327467 0-0.00545813 0-0.00873173l42.42654826 0c0 0.00327467 0 0.00545813 0 0.00873173L724.57699093 837.213856c0-0.00327467 0-0.00545813 0-0.00873173l42.42654827 0c0 0.00327467 0 0.00545813 0 0.00873173l105.8933632 0c35.1733536 0 63.68730347-28.51394987 63.68730347-63.68730347l0-539.30037653c0 0 0 0 0 0l0 0 0 0c-76.31189973 129.4430496-129.57512427 274.03867093-154.2338016 428.20589013-0.00327467 0.019648-0.00654933 0.03820373-0.009824 0.05785067-0.00327467 0.02401387-0.00764053 0.04693547-0.0120064 0.07094933 0 0-10.0944384-3.2069056-20.28165547-6.3319456-9.7637056-2.9951488-19.61145813-5.9149824-20.73464-5.86368106 2.43410453-14.83493867 5.1323584-29.5803712 8.0740224-44.23739094 37.97857707-189.25979947 117.83575573-363.35829333 229.65501653-512.149744l0 1.93091094 0 71.07148053L979.0413152 794.75565333C979.0424064 841.65418667 941.0245344 879.6720576 894.12491093 879.6720576z"  horiz-adv-x="1024" />

    
    <glyph glyph-name="zan" unicode="&#58938;" d="M1024.549 397.212c0.379-4.717 0.025-9.567-1.254-14.401l-92.244-407.161c-1.295-4.876-3.43-9.305-6.137-13.242-9.879-19.727-24.902-37.173-44.875-49.875-21.041-13.375-44.541-19.618-67.752-19.576l0 0.256-592.522 0.247c-2.071-0.307-4.168-0.515-6.327-0.515-2.165 0-4.271 0.208-6.356 0.524l-157.605 0.065c-2.215-0.355-4.47-0.59-6.788-0.59C19.109-107.05600000000004 0-87.94399999999996 0-64.37l0.387 512.489c0 23.58 19.118 42.688 42.698 42.688 1.761 0 3.488-0.136 5.198-0.352l141.671 0.331 0 0.805c130.35 9.331 233.638 116.19 237.323 248.024-0.328 3.71-0.563 7.438-0.563 11.233 0 68.586 55.596 124.191 124.192 124.191 58.941 0 108.18-41.102 120.9-96.173l0.627 0.082c6.992-31.441 10.803-64.079 10.803-97.619 0-51.715-8.83-101.353-24.984-147.544l238.277-0.257c2.191 0 4.334-0.219 6.443-0.542 40.684-1.598 79.869-22.548 102.949-59.75C1020.604 449.577 1026.461 422.993 1024.549 397.212M85.417-21.10699999999997l85.37-0.036 0.322 426.51-85.29-0.19L85.417-21.10699999999997 85.417-21.10699999999997zM933.867 428.631c-8.207 13.231-22.701 20.186-37.229 19.402l0 0.127c-0.035 0-0.072 0-0.107 0l-301.186 0.314c-23.572 0-42.688 19.118-42.688 42.695 0 6.787 1.631 13.186 4.451 18.883l-0.453 0.374c17.053 31.748 29.459 66.356 36.492 102.865l0.535-0.014c0 0 5.676 23.051 5.604 67.264-0.061 35.024-6.443 66.999-6.443 66.999l-0.322 0c0.029 0.621 0.096 1.228 0.096 1.857 0 22.042-17.875 39.916-39.916 39.916-22.053 0-39.928-17.874-39.928-39.916 0-0.921 0.082-1.83 0.139-2.736l-0.556-0.008c0 0 0.679-33.328-5.974-67.893-2.825-14.663-6.795-28.337-10.41-39.168-0.073 0.035-0.137 0.064-0.21 0.1-35.93-109.848-126.277-194.998-239.189-223.682l-0.41-437.186 556.325-0.227c1.881 0 3.717-0.16 5.529-0.407 5.551 0.74 11.037 2.657 16.076 5.861 7.152 4.544 12.344 10.99 15.387 18.263l0.109-0.061 88.814 392.011-0.344 0.103C941.611 405.454 940.484 417.962 933.867 428.631"  horiz-adv-x="1025" />

    
    <glyph glyph-name="shangjiantou" unicode="&#58951;" d="M511.43111111 671.51644445L1001.69955555 181.36177778c25.94133333-25.94133333 25.94133333-68.03911111 0-93.98044445-25.94133333-25.94133333-68.03911111-25.94133333-93.98044444 0L511.43111111 483.55555555 115.14311111 87.26755555c-25.94133333-25.94133333-68.03911111-25.94133333-93.98044444 0-25.94133333 25.94133333-25.94133333 68.03911111 0 93.98044445L511.43111111 671.51644445 511.43111111 671.51644445zM511.43111111 671.51644445"  horiz-adv-x="1024" />

    
    <glyph glyph-name="wujiaoxing" unicode="&#58919;" d="M1020.28290162 498.51889664L679.54729757 564.2293816900001 511.99825351 869.22229191 344.45270243 564.2293816900001 3.71593443 498.51889664 240.9003008 244.34397298 197.84583395-101.22112683 511.99825351 46.672287289999986 826.13088029-101.22112683 783.07641344 244.34397298Z"  horiz-adv-x="1024" />

    
    <glyph glyph-name="youjiantou" unicode="&#58930;" d="M786.04909306 356.68169026c0.62981747 1.25963363 1.73199641 2.36181388 2.20435919 3.62144751 11.02179594 22.98831742 7.40034843 51.33008006-12.12397618 69.75222571L331.16381285 850.93052905c-24.24795235 22.98831742-62.50933068 21.88613847-85.4976481-2.36181389-22.98831742-24.24795235-21.88613847-62.50933068 2.36181387-85.4976481l399.30393516-377.73270608L249.60252035 2.094757589999972c-24.09049766-23.14577211-24.72031513-61.40715044-1.57454173-85.49764811 11.80906809-12.28142957 27.71194517-18.57959905 43.45736887-18.57959905 15.11560622 0 30.23121245 5.66835201 41.88282584 17.00505734l440.87185293 424.96897584c0.78727086 0.78727086 1.10218023 2.04690449 2.04690449 2.83417665 0.62981747 0.62981747 1.25963363 1.10218023 2.0469045 1.73199641C781.95528277 348.17916160000004 783.68727917 352.58787997 786.04909306 356.68169026L786.04909306 356.68169026zM786.04909306 356.68169026"  horiz-adv-x="1024" />

    
    <glyph glyph-name="caidan" unicode="&#59280;" d="M52.41173151 645.47367958l918.96777691 0c24.0075638 0 43.63113692 19.62357313 43.63113691 43.63113692 0 24.0075638-19.41481184 43.63113692-43.63113691 43.63113693L52.41173151 732.73595463c-24.0075638 0-43.63113692-19.62357313-43.63113692-43.63113691C8.78059459 665.09725392 28.40416771 645.47367958 52.41173151 645.47367958zM971.3795072 427.52675628L52.41173151 427.52675628c-24.0075638 0-43.63113692-19.62357313-43.63113692-43.63113692 0-24.0075638 19.62357313-43.63113692 43.63113692-43.63113692l918.96777691 0c24.0075638 0 43.63113692 19.62357313 43.63113691 43.63113692C1015.01064412 407.90318316 995.387071 427.52675628 971.3795072 427.52675628zM971.3795072 122.52632042000005L52.41173151 122.52632042000005c-24.0075638 0-43.63113692-19.41481184-43.63113692-43.63113692s19.62357313-43.63113692 43.63113692-43.63113693l918.96777691 0c24.0075638 0 43.63113692 19.41481184 43.63113691 43.63113693S995.387071 122.52632042000005 971.3795072 122.52632042000005z"  horiz-adv-x="1024" />

    
    <glyph glyph-name="zhaoxiangji" unicode="&#58979;" d="M512 638.8622222199999c-141.99466667 0-254.86222222-112.86755555-254.86222222-254.86222222s112.86755555-254.86222222 254.86222222-254.86222222 254.86222222 112.86755555 254.86222222 254.86222222S653.99466667 638.8622222199999 512 638.8622222199999zM512 183.75111111c-109.22666667 0-200.24888889 91.02222222-200.24888889 200.24888889s91.02222222 200.24888889 200.24888889 200.24888889 200.24888889-91.02222222 200.24888889-200.24888889S621.22666667 183.75111111 512 183.75111111zM803.27111111 544.19911111a1.82044445 1.82044445 0 1 1 116.50844444 0 1.82044445 1.82044445 0 1 1-116.50844444 0ZM912.49777778 711.6800000000001l-109.22666667 0-25.48622222 76.45866667c-7.28177778 18.20444445-29.12711111 32.768-47.33155556 32.768l-436.90666666 0c-21.84533333 0-40.04977778-14.56355555-47.33155556-32.768l-25.48622222-76.45866667-109.22666667 0c-61.89511111 0-109.22666667-47.33155555-109.22666667-109.22666667l0-509.72444444c0-61.89511111 50.97244445-109.22666667 109.22666667-109.22666667l800.99555556 0c61.89511111 0 109.22666667 47.33155555 109.22666667 109.22666667l0 509.72444444C1021.72444445 664.34844445 974.39288889 711.6800000000001 912.49777778 711.6800000000001zM967.11111111 92.72888889000001c0-29.12711111-25.48622222-54.61333333-54.61333333-54.61333334l-800.99555556 0c-29.12711111 0-54.61333333 25.48622222-54.61333333 54.61333334l0 509.72444444c0 29.12711111 25.48622222 54.61333333 54.61333333 54.61333334l109.22666667 0 40.04977778 0 10.92266666 36.40888888 25.48622222 72.81777778 429.6248889 0 25.48622222-72.81777778 10.92266666-36.40888888 40.04977778 0 109.22666667 0c29.12711111 0 54.61333333-25.48622222 54.61333333-54.61333334L967.11111111 92.72888889000001z"  horiz-adv-x="1024" />

    
    <glyph glyph-name="fangdajing" unicode="&#58903;" d="M1029.79026337-70.22906814999999l-210.04503662 210.04876245c65.12973383 77.65692811 104.46365703 177.67577221 104.46365704 286.95805831 0 246.86035673-200.12213862 446.97752796-446.98125381 446.97752797-246.86408257 0-446.98249535-200.11841278-446.98249533-446.97752797 0-246.86408257 200.11841278-446.98249535 446.98249533-446.98249534 108.31235087 0 207.59846487 38.5540011 284.95857558 102.6479773l210.13818026-210.13818027c1.91379077-1.91379077 9.89805985 2.96569211 17.83513696 10.89780183l28.73293877 28.73293876C1026.8282971-80.12712800999998 1031.70405413-72.14285891999998 1029.79026337-70.22906814999999zM477.22638723 61.06118858000002c-201.97880142 0-365.7128382 163.73403679-365.71283821 365.71283819s163.73403679 365.7128382 365.71283821 365.7128382S842.93922543 628.75282819 842.93922543 426.77402677 679.20643019 61.06118858000002 477.22638723 61.06118858000002z"  horiz-adv-x="1024" />

    
    <glyph glyph-name="gou" unicode="&#58898;" d="M327.79222243 161.31459982l-239.48384938 239.48384939-81.26430208-81.26430208 320.74815146-320.74815147 689.16370546 689.16370546-81.26430208 81.26430208L327.79222243 161.31459982z"  horiz-adv-x="1024" />

    
    <glyph glyph-name="wodexiao" unicode="&#58890;" d="M1276.58484389 353.42513834c0.13269254 2.31991173 0.2609615 4.64424511 0.3693281 6.9707903 0.18576996 3.9033771 0.33615497 7.81117777 0.44673147 11.72340206 0.03096133 1.1278886 0.05086561 2.25798713 0.07740337 3.38587574 0.10615482 4.67520645 0.1791346 9.3526247 0.17913454 14.03889017 0 344.40395338-280.20500303 624.61116822-624.61116819 624.61116818-344.40395338 0-624.61116822-280.20721483-624.61116824-624.61116818 0-4.68405365 0.07076989-9.36147193 0.1791346-14.03446659 0.02432785-1.13010043 0.04644201-2.26241071 0.07740334-3.39251112 0.1105765-3.91001247 0.2609615-7.81338956 0.44673148-11.71455485 0.10836658-2.33539237 0.23442375-4.66193759 0.36932814-6.99069459 0.05750099-0.97086821 0.12384729-1.94173642 0.18576994-2.91260462 20.22679403-326.28255158 292.06552121-585.56412467 623.35279883-585.56412467 331.27179695 0 603.09725526 259.25503537 623.35058704 585.51547088C1276.4587867 351.44138161 1276.52734479 352.43215408000003 1276.58484389 353.42513834zM653.0462751 970.46397424c320.32685967 0 580.91987956-260.59301989 580.91987953-580.91987953 0-181.21844738-86.47142188-353.8627329-231.75225737-463.53105253-71.85089589 7.8509863-182.75547074 37.85944403-183.79268523 148.05411406-0.18355814 16.25485888-2.90154754 30.54807516-5.09097658 42.01272554-3.61145424 19.04361619-4.10905132 25.20277053-0.36932812 29.42682193 24.247383 27.50498975 52.3096807 96.62462741 61.9520184 152.3201839 1.26721465 2.00587089 7.12559893 6.45771259 11.40715132 9.71531933 16.28360839 12.41561623 42.93715173 32.71096644 46.5353371 73.91205599 18.4464997 26.56729468 11.30542013 60.85730481 5.47578537 88.85989168-2.6450077 12.65667349-5.13299692 24.63219178-5.0754959 33.94721975 0.05528922 14.15167843 0.34057858 28.18835681 0.63913681 42.02599632 1.56577479 74.92273273 3.02981649 145.70545282-33.02500534 199.82196562-58.168065 87.36709854-147.75334212 137.47186951-245.80220463 137.47186953-98.11742054 0-189.08491433-49.97650204-249.57067737-137.13129097-35.04414705-50.5315982-34.04895097-125.96519879-32.98077514-205.82409948 0.15702043-12.07282588 0.32730779-24.22084525 0.35605925-36.35117024 0.02874954-9.16022125-2.87279799-20.83496759-5.94463291-33.19529463-6.5992504-26.52527438-15.43216387-62.0648086 6.27194261-90.14037523 3.04308729-39.03819826 26.60931312-56.12017378 42.56782362-67.66886293 8.69137376-6.30069215 14.06542791-10.36772505 15.06283577-14.77754637 13.21177159-57.18613971 30.07922761-120.97374163 63.31654259-154.04076538 8.02127558-7.97704343 7.72271546-9.82810764 2.00587086-27.2771995-3.68443398-11.26339978-8.27781351-25.27354041-8.44810277-43.14946137-1.08144661-110.02437887-111.95726998-140.0881277-183.79268521-148.00988193-145.2786237 109.6815904-231.77879514 282.32587593-231.77879515 463.5310525C72.12639551 709.87095436 332.71941537 970.46397424 653.0462751 970.46397424z"  horiz-adv-x="1329" />

    
    <glyph glyph-name="hongbao" unicode="&#58966;" d="M584.05205333 484.10282667l-35.91054222 0 0 28.73230222 0 0 35.91054222 0c21.55178667 0 35.91395555 14.36216889 35.91395556 35.90940444 0 21.54723555-14.36216889 35.91509333-35.91395556 35.91509334l-21.54723555 0 0 0 43.10016 43.09447111c14.36216889 14.36785778 14.36216889 35.91509333 0 50.2784-14.36899555 14.36785778-35.91509333 14.36785778-50.27726223 0l-43.10016-50.2784-43.0944711 50.2784c-14.36785778 14.36785778-35.91509333 14.36785778-50.27726223 0-14.36899555-14.36444445-14.36899555-35.91054222 0-50.2784l43.09333333-43.09447111 0 0-21.54609777 0c-21.54723555 0-35.91623111-14.36785778-35.91623111-35.91509334 0-21.54723555 14.36899555-35.90940445 35.91623111-35.90940444l43.09447111 0 0 0 0-28.73230222-43.09447111 0c-21.54723555 0-35.91623111-14.36785778-35.91623111-35.91395556 0-21.54723555 14.36899555-35.91623111 35.91623111-35.91623111l43.09447111 0 0-50.2784c0-21.54723555 14.36785778-35.90826667 35.91509333-35.90826667 21.54723555 0 35.91509333 14.36103111 35.91509333 35.90826667l0 50.2784 28.72547556 0c21.55178667 0 35.91395555 14.36785778 35.91395556 35.91623111C619.96714667 469.73496889 605.60497778 484.10282667 584.05205333 484.10282667L584.05205333 484.10282667zM584.05205333 484.10282667M770.80234667 469.73496889c-21.54723555-122.10289778-129.28796445-215.47463111-258.57592889-215.47463111-122.10289778 0-229.84476445 86.18780445-251.39086223 201.1136l-179.56522666 107.73959111 0-545.88188444c0-79.00842667 64.64056889-136.47075555 136.47189333-136.47075556l588.97521778 0c79.00956445 0 136.46620445 64.64625778 136.46620445 136.47075556L943.18364445 570.29176889 770.80234667 469.73496889 770.80234667 469.73496889zM770.80234667 469.73496889M512.22641778 771.40423111c122.10289778 0 222.66538667-86.18666667 251.39086222-201.11246222L943.18364445 685.21756445l0 64.64056888c0 79.00842667-64.64056889 136.47075555-136.46620445 136.47075556L217.74222222 886.32888889c-71.83018667 0-136.47189333-57.46232889-136.47189333-136.47075556l0-79.00956444 179.56522666-107.73390222C282.38279111 685.21756445 390.12352 771.40423111 512.22641778 771.40423111L512.22641778 771.40423111zM512.22641778 771.40423111"  horiz-adv-x="1024" />

    
    <glyph glyph-name="fangdajing1" unicode="&#58909;" d="M626.20626182 885.87285097c-216.90300121 0-393.35525919-176.46041599-393.35525918-393.35525919 0-109.63542109 45.18479306-208.83667869 117.79149688-280.24069501L16.16340846-104.59760470000003l12.57843808-13.27524627L364.21148376 199.94160542999998c69.64649595-62.43363801 161.31505005-100.77764205 261.99314729-100.77764205 216.90300121 0 393.35525919 176.46041599 393.35525918 393.35525918S843.10763224 885.87285097 626.20626182 885.87285097zM626.20626182 117.45883666999998c-206.80826631 0-375.0587551 168.25048878-375.05875511 375.05875511S419.39799551 867.5763469 626.20626182 867.5763469 1001.26501694 699.32585812 1001.26501694 492.51759178 833.012896 117.45883666999998 626.20626182 117.45883666999998z"  horiz-adv-x="1024" />

    
    <glyph glyph-name="shui" unicode="&#58990;" d="M547.392 878.976c-1.408 11.264-19.904 11.264-21.312 0C479.424 502.656 243.008 425.728 243.008 169.27999999999997c0-160.32 134.464-290.304 293.76-290.304 159.232 0 293.696 129.984 293.696 290.304C830.464 425.728 594.048 502.656 547.392 878.976zM536.704-67.77599999999995c-130.432 0-240.512 106.368-240.512 237.632 0 212.416 185.088 294.464 240.576 528.32 2.112 9.024-2.176 1.792 0-7.232 53.056-218.048 249.024-329.472 240.384-521.152C771.264 38.72000000000003 667.072-67.77599999999995 536.704-67.77599999999995zM587.648-5.951999999999998c-14.464 0-26.176 12.16-26.176 27.136 0 14.976 11.712 27.136 26.176 27.136 36.032 0 65.344 30.272 65.344 67.584 0 14.976 11.712 27.136 26.176 27.136 10.816 0 20.16-6.784 24.128-16.512 1.344-3.264 2.112-6.848 2.112-10.624C705.28 48.70399999999995 652.48-5.951999999999998 587.648-5.951999999999998L587.648-5.951999999999998zM601.088 16"  horiz-adv-x="1024" />

    
    <glyph glyph-name="jiangbei" unicode="&#59383;" d="M679.62579502 9.287452059999964C675.42965174 24.413646390000054 661.72802531 34.86922259000005 646.08515346 34.86922259000005L572.19126297 34.86922259000005 572.19126297 161.04440339999996C553.45973466 157.88389487999996 534.25373701 156.15479497 514.71126853 156.15479497 495.12773797 156.15479497 475.92173619 157.88731523 457.19021066 161.04440339999996L457.19021066 34.86808202999998 383.35563002 34.86808202999998C367.71275956 34.86808202999998 353.99174199 24.41250581999998 349.81384652 9.286311490000003L323.57967426-85.34422074999998C320.68833718-95.86252579999996 322.8269006-107.14843056999996 329.40112657-115.83498537000003 336.01527124-124.54093266999996 346.24843542-129.66891981000003 357.13970695-129.66891981000003L672.28282874-129.66891981000003 672.5805159-129.66891981000003C691.80362769-129.66891981000003 707.38946666-114.00893937000001 707.38946666-94.70599014000004 707.38946666-89.89621913999997 706.43937775-85.30886294000004 704.70001265-81.15035723999995L679.62579502 9.287452059999964 679.62579502 9.287452059999964ZM868.54012622 759.06743922C858.89777413 761.6314327800001 849.11969782 762.86324498 839.39522989 762.86324498 834.9002547 762.86324498 830.42581262 762.56555642 825.95136779 762.06941065L825.95136779 855.3289806C825.95136779 873.4959259 811.29850773 888.24345226 793.20113748 888.24345226L236.2601736 888.24345226C218.14341358 888.24345226 203.47230571 873.49364475 203.47230571 855.3289806L203.47230571 762.0671294900001C198.99672167 762.56555642 194.52113902 762.8609638400001 190.04669555 762.8609638400001 180.30625682 762.8609638400001 170.54414716 761.62915164 160.90065586 759.06515807 84.47014559 738.61365721 43.76104153 641.93466831 69.93704587 543.10913198 92.86699722 456.72717667 159.31412775 397.27742246 226.7159123 397.27742246 230.12050375 397.27742246 233.54562557 397.61503251 236.97188796 397.95263844 239.46744705 392.52696411 242.12154601 387.21876895 244.89198219 381.99269102000005 245.40637853 381.01864729 245.92077349 380.04346022000004 246.43631041 379.1298697 250.51383533 371.57703631000004 254.85140986 364.22266150999997 259.44333111 357.12605795 259.95886803 356.33222222999996 260.47098185 355.51671836 261.00704772 354.72288261999995 265.81909849 347.42781907999995 270.82732668 340.29357379 276.11499425 333.39656662000004 276.25414297 333.21863974999997 276.41268144 333.03843175 276.56893877 332.85822098000006 287.67691807 318.4699742 299.93344625 305.14929691 313.10014738 292.94751492 313.35791583 292.72966519 313.55295268 292.47075615999995 313.77308219 292.29168871 320.28799828 286.28888368 327.03901191 280.62482928 333.94742483 275.21740414 334.28389156 274.95735591000005 334.60096852 274.74179009 334.920328 274.48060129 363.53030042 252.41747692 395.74674598 235.44242369999995 430.37434951 224.84884211999997 430.49296789 224.78611052999997 430.59219649 224.76900051999996 430.71081625 224.73022238 439.40421447 222.10578111999996 448.19456154 219.83947474 457.14686881 217.99175506999995L457.18564834 217.99175506999995 457.18564834 217.99175506999995C466.4527528 216.10640057 475.85672482 214.6521791 485.35992544 213.68155572 485.57777379 213.64163284000006 485.81501053 213.64163284000006 486.0134705 213.61882412 495.45850319 212.66417015000002 505.06321218 212.12696370000003 514.70556428 212.12696370000003 524.36730475 212.12696370000003 533.89103709 212.66417015000002 543.31667865 213.61882412 543.55505872 213.64163284000006 543.79229407 213.64163284000006 544.05006254 213.68155572 553.53273143 214.63392991 562.88195586 216.10640057 572.1091416 217.99175506999995L572.16959344 217.99175506999995 572.2676787 217.99175506999995C581.19831643 219.83947474 589.98980546 222.08867249000002 598.64214163 224.71197318999998 598.76076137 224.75303664 598.88052032 224.78839444000005 599.03791822 224.83059292999997 633.6689421 235.44584819 665.84318779 252.39922772 694.47825147 274.4634913 694.79190807 274.70187137000005 695.11126894 274.96191959 695.42720532 275.19915497 702.39492813 280.58719169999995 709.12997095 286.29458931 715.62322027 292.27343953 715.83992528 292.47418064 716.06005617 292.67491759999996 716.27562199 292.91443689000005 729.4822446 305.09796830000005 741.73877277 318.47453375 752.88894919 332.88445420000005 753.04749181 333.04299267 753.16382766 333.20267033000005 753.28472717 333.38174191999997 758.59178727 340.27874909 763.62168362 347.4186945 768.43259518 354.72972746000005 768.94698877 355.50645318 769.48191546 356.30028890000006 769.99631319 357.09525967 774.57112445 364.23064555999997 778.94633517 371.58502172 783.0250034 379.13785371999995 783.52001138 380.05144423 784.0150152 380.98556925 784.52712763 381.93908265000005 787.30326804 387.18683011 789.95622782 392.5132786 792.46775359 397.96062383 795.89515516 397.62301792 799.33738559 397.28540786 802.72258866 397.28540786 870.12779766 397.28540786 936.59317604 456.73630126 959.48206395 543.117116 985.69913173 641.93466831 944.95124812 738.61479777 868.54012622 759.06743922L868.54012622 759.06743922ZM123.79460186 557.49966128C105.85462953 625.24019506 129.41873615 692.75945738 175.2364376 705.00115947 180.06787812 706.2945612999999 185.03960794 706.9287166 190.0672259 706.9287166 194.52227959 706.9287166 198.99786224 706.33334084 203.47344628 705.39807663L203.47344628 550.14300672C203.47344628 540.68200597 203.92739218 531.29970486 204.66191666 522.01891489 204.73947434 520.76543179 204.7987842 519.51423122 204.89915476 518.26188867 205.64964729 509.45557356 206.77880778 500.74962899 208.14634697 492.12466386 208.40525599 490.57463413 208.6607433 489.08277234 208.89912201 487.57266272 210.40238816 479.00472629 212.14745475 470.57821973 214.22556772 462.28972132 214.52211434 460.99746004 214.87911277 459.72572774 215.2155795 458.43346649 215.59310691 456.98266537 215.95010396 455.59003492 216.34359941 454.15976275 176.87885385 460.6222138 138.28778287 502.81975658 123.79460186 557.49966128L123.79460186 557.49966128ZM684.85529329 621.20372944L592.3884171 551.53677911 626.01118001 441.30215457C627.31826736 437.02844946 625.77279994 432.37950085 622.17089045 429.73338592 620.32887642 428.40234788 618.15381462 427.70659881 616.01525258 427.70659881 613.93600318 427.70659881 611.83735849 428.32364686 610.09571362 429.57713274L514.69758025 495.46766431 419.31883664 429.57713274C415.6929751 427.01313916 410.78511747 427.112365 407.2003166 429.7356712 403.61323458 432.37950085 402.09171785 437.03073474 403.41819773 441.30443434L436.97936962 551.53906026 344.53074262 621.2048700099999C340.9664721 623.88976311 339.46206398 628.59802298 340.84785235 632.85233554 342.21425097 637.08611918 346.11498958 640.00597061 350.58943167 640.10633979L466.70025471 642.45248499 504.85563175 751.3765977099999C506.30186922 755.57046121 510.26077712 758.37283348 514.6952991 758.37283348 519.14921222 758.37283348 523.08873039 755.57046121 524.55663737 751.3765977099999L562.69490442 642.45248499 678.76466815 640.10633979C683.25621747 640.00710979 687.17976759 637.08611918 688.54616897 632.85233554 689.88519102 628.59802298 688.44009277 623.8874819600001 684.85529329 621.20372944L684.85529329 621.20372944ZM905.66785117 557.49966128C891.15300062 502.82089714 852.60413226 460.6222138 813.10288419 454.16090195 813.49866217 455.5729263 813.87619093 456.98380455 814.22862571 458.43460705 814.58562001 459.72686833 814.92209087 460.97692972 815.24144622 462.2908619 817.3172808 470.57936031 819.06348658 479.00700606 820.52911654 487.5738033 820.80399087 489.08391291 821.04236956 490.57463413 821.27960907 492.12580443 822.66539469 500.75190879 823.77516678 509.45671412 824.54504906 518.2630292399999 824.6636688 519.5153703999999 824.72298006 520.7471826 824.80509729 521.95960502 825.51681165 531.2825976199999 825.95479226 540.68314655 825.95479226 550.14414729L825.95479226 705.39807663C830.42923297 706.33105968 834.94359791 706.9287166 839.39864884 706.9287166 844.40801761 706.9287166 849.39685604 706.29228016 854.18837785 705.00115947 900.04371549 692.75945738 923.60782351 625.2390531 905.66785117 557.49966128L905.66785117 557.49966128Z"  horiz-adv-x="1024" />

    
    <glyph glyph-name="nan" unicode="&#58950;" d="M850.43217598 297.64394098c0 92.47818942-29.35857456 180.43895808-83.65772345 253.25362896l131.87513154 131.87513155 0-102.84899442c0-17.16091714 6.95322397-32.69226951 18.20017246-43.93766456 11.24228816-11.24384161 26.77985431-18.20017247 43.93766458-18.20017248 34.31717395 0 62.13783703 27.81910964 62.13783703 62.13783704l0 247.83676302c0.13359635 1.6606337 0.22058932 3.33214151 0.22058933 5.02539757 0 17.21839465-7.00604112 32.79945728-18.31978781 44.05417301-11.25316229 11.30442601-26.82801115 18.30269989-44.03863855 18.30425336-1.69325605 0-3.36787077-0.08699297-5.02695102-0.22058934l-247.83676302 0c-34.31717395 0-62.13783703-27.82066309-62.13783704-62.13783703 0-17.1593637 6.95633086-32.69382295 18.20017248-43.93921801 11.24539506-11.24384161 26.77830087-18.19861902 43.93766456-18.19861903l102.85054786 0-131.87513154-131.87668499c-72.81467088 54.29604201-160.77854644 83.65617001-253.25673586 83.65461656-113.46679732 0-220.13882217-44.18310902-300.37119734-124.41703766C45.04036845 517.7827631499999 0.85415253 411.10763141 0.85415253 297.64083408c0.00155344-113.46524387 44.18621591-220.13726871 124.4185911-300.36964389 80.23082174-80.22926829 186.90440002-124.41548421 300.3696439-124.41548422 113.46369043 0 220.14037561 44.18466247 300.3696439 124.41548422C806.2475135 77.50356537000005 850.43062253 184.17869710000002 850.43217598 297.64394098zM425.64238753-2.871726839999951c-80.26965789 0.00310689-155.73450752 31.25999237-212.49431476 88.02135306-56.75825379 56.75825379-88.01669271 132.22154998-88.01824616 212.49120786 0 80.27276478 31.25843892 155.73606096 88.01669272 212.49586821 56.75980724 56.75825379 132.22310343 88.01669271 212.4958682 88.01824617 80.26965789 0 155.73761441-31.25999237 212.49431476-88.01824617 56.75980724-56.75980724 88.01824617-132.22310343 88.01824617-212.49276131 0-80.27276478-31.25999237-155.73606096-88.01824617-212.49742165C581.3784485 28.388265530000012 505.91204542-2.871726839999951 425.64238753-2.871726839999951z"  horiz-adv-x="1024" />

    
    <glyph glyph-name="shijian" unicode="&#59061;" d="M496.64760491 695.9541851L413.42263069 695.9541851 413.42263069 279.96087751000005 748.84672057 279.96087751000005 748.84672057 362.41043228 496.64760491 362.41043228ZM512.81267826 896.66817365c-279.59847139 0-506.517248-224.79975993-506.517248-501.78788125s226.91761266-501.78788125 506.517248-501.78788124c279.59614237 0 506.51375502 224.79975993 506.51375502 501.78788124S792.40882062 896.66817365 512.81267826 896.66817365zM512.81267826-6.54884863999996c-222.86819442 0-405.21426375 180.64270563-405.21426375 401.42914104s182.34606933 401.43263403 405.21426375 401.43263403c222.86470144 0 405.21077191-180.64503467 405.21077191-401.43263403S735.6773797-6.54884863999996 512.81267826-6.54884863999996z"  horiz-adv-x="1024" />

    
    <glyph glyph-name="xin" unicode="&#58932;" d="M938.96329557 701.61154048c-110.29134222 110.29250617-289.12822613 110.29250617-399.40210346 0l-28.16546134-28.17361123-28.18176227 28.17361123c-110.29134222 110.29250617-289.11192633 110.29250617-399.38580367 0-110.30764203-110.28086329-110.30764203-289.09213241 0-399.38347463l28.16662642-28.16546134 399.40093952-340.05216256 399.38463858 340.05216256 28.18292622 28.16662642C1049.23833799 412.51940693 1049.23833799 591.33067719 938.96329557 701.61154048L938.96329557 701.61154048z"  horiz-adv-x="1024" />

    
    <glyph glyph-name="daishiyong" unicode="&#58904;" d="M1026.159236 22.542786999999976c-339.440164 0-675.053056 0-1012.779134 0 0 76.437995 0 152.558757 0 231.98489 47.67717-1.146135 92.013151 11.61485 117.176955 55.214031 12.540968 21.730515 20.69183 49.539639 20.364363 74.462959C150.06182 449.698096 105.546755 485.366432 11.282267 500.992755c0 37.418238 0 75.481177 0 113.544116 0 33.232799 0.455384 66.475831-0.220017 99.693279-0.271184 13.277769 4.66129 18.906111 17.734393 18.225593 6.794943-0.353051 13.63082 0.025583 20.44623 0.025583 313.575376 0.005117 627.150752 0.010233 940.726128 0 36.18512 0 36.190236-0.0307 36.195353-36.113486 0.005117-56.237366-0.936351-112.500315 0.486084-168.70698 0.542367-21.418398-5.792075-29.79951-27.604457-32.623914-56.989517-7.388477-99.007645-52.01611-103.709869-106.570089-4.912007-57.025334 28.530575-108.473492 82.593354-127.021436 2.41507-0.828901 4.835257-1.662919 7.306611-2.312737 40.933393-10.739899 40.933393-10.734782 40.933393-55.132164C1026.159236 144.503833 1026.159236 85.002029 1026.159236 22.542786999999976zM518.887043 51.31896300000005c150.03112 0 300.06224 0.353051 450.083126-0.404217 20.998831-0.10745 28.535692 5.833009 27.773307 27.404907-1.473602 41.716244-1.120552 83.539939-0.07675 125.281767 0.399101 15.928207-6.027442 22.359866-20.395063 26.831839-68.921601 21.443981-111.927247 76.770579-113.288283 144.146944-1.366152 67.637316 43.148913 125.870184 114.802818 148.363084 13.70757 4.303123 19.167061 10.397082 18.844711 25.025653-0.880068 40.043092-1.836886 80.203867 0.2456 120.159976 1.340569 25.716404-6.226992 33.237915-32.572748 33.135582-259.988448-0.997751-519.982012-0.603768-779.975576-0.603768-39.214191 0-78.453965-0.910768-117.622106 0.373517-20.497397 0.675401-26.642522-6.927977-26.079688-26.729506 1.181952-41.736711 0.900535-83.539939 0.0614-125.292-0.296767-14.746255 4.81479-20.21598 19.248928-23.813002 75.772828-18.870294 124.176565-77.972998 123.710948-148.869635-0.470734-71.592505-47.943237-129.559306-123.726298-148.900335-14.434138-3.684005-19.489412-9.43003-19.207995-24.063719 0.787968-40.902693 1.724319-81.897487-0.266067-122.718313-1.202418-24.698186 8.248079-29.89161 30.920062-29.763694C220.533773 51.72317999999996 369.710408 51.31896300000005 518.887043 51.31896300000005zM494.700525 408.396302c-18.900994 50.158757-35.320402 93.747704-51.755159 137.336651-2.706721 7.178694-7.352661 14.255054-7.664778 21.525848-0.307 7.168461 3.750522 14.521121 5.894409 21.791915 7.490811-3.458872 19.131245-5.009224 21.750982-10.704082 11.005966-23.925568 19.218228-49.130305 28.638025-73.797791 5.710208-14.956039 11.758117-29.78416 19.392195-49.053555 5.219008 8.519262 9.26118 13.395453 11.456233 18.998211 11.497167 29.333893 22.364983 58.913386 33.795633 88.277979 4.978524 12.786569 6.851227 33.319782 26.918823 25.614071 18.670744-7.173577 6.620976-23.06085 2.159236-35.069685-15.718423-42.304662-31.856413-84.450707-47.682287-126.714436-1.683386-4.497557-2.36902-9.373747-4.502673-18.097677 25.900605 0 49.468006 0.056283 73.040524-0.0307 7.659661-0.0307 16.281257 1.678269 22.712917-1.253585 6.626093-3.018838 11.12365-10.714316 16.552441-16.368241-5.960925-4.998991-11.6302-13.840604-17.928826-14.311338-23.746485-1.765253-47.779503-2.087603-71.541338-0.480967-20.886264 1.412202-27.220707-6.60051-25.434987-26.468555 1.519652-16.915725 1.294519-34.148683 0.04605-51.110458-1.294519-17.550192 4.451507-24.820986 22.840833-23.813002 22.948284 1.263819 46.126818 1.504302 68.988118-0.414451 7.905262-0.665168 15.160706-9.10768 22.712917-13.994104-7.414061-5.132024-14.500655-14.004337-22.308699-14.695088-22.84595-2.021086-46.014251-1.581052-68.988118-0.562834-18.133493 0.803318-23.777185-6.67726-23.280867-24.135352 0.982401-34.931535 1.371269-69.960286-0.399101-104.825304-0.475851-9.389097-9.614231-18.33816-14.776955-27.49189-5.203658 9.128147-14.357388 18.03116-14.899755 27.425374-1.857353 32.291331-2.06202 64.833378-0.240484 97.129826 1.350802 24.012552-5.413441 34.517084-31.027512 32.07643-21.121631-2.010853-42.693529-1.545236-63.84586 0.317234-7.439644 0.654934-14.229471 8.718813-21.316065 13.395453 7.229861 5.336691 14.116904 14.623455 21.745865 15.273272 23.700435 2.026203 47.70787 1.463369 71.546455 0.562834 15.887273-0.603768 23.782302 3.755639 22.702683 21.336531-1.197302 19.535462-0.941468 39.234657-0.0614 58.800819 0.680518 15.165822-4.395223 21.669115-20.33878 21.029531-23.833468-0.951701-47.83067-1.407085-71.556688 0.470734-8.273662 0.654934-15.943557 8.872313-23.889752 13.635937 7.787578 6.129776 15.186289 16.854325 23.429251 17.545076C434.467036 409.808504 461.667276 408.396302 494.700525 408.396302z"  horiz-adv-x="1027" />

    
    <glyph glyph-name="shipin" unicode="&#58905;" d="M2.27555555 384.00018205C2.27555555 665.5039010099999 230.49609899 893.72444445 511.99981795 893.72444445 793.50353693 893.72444445 1021.72408035 665.5039010099999 1021.72408035 384.00018205 1021.72408035 102.49646307 793.50353693-125.72408035000001 511.99981795-125.72408035000001 230.49609899-125.72408035000001 2.27555555 102.49646307 2.27555555 384.00018205M401.45761621 614.12369522C368.69933739 632.1679348600001 342.09173049 616.60435342 342.09173049 579.2245748600001L342.09173049 188.80977123000002C342.09173049 151.70184532999997 368.66535538 135.83242923 401.45761621 153.91064974000005L758.97821411 351.24190322000004C791.66853006 369.32012373 791.73649294 398.68024035 758.97821411 416.79244288L401.45761621 614.12369522Z"  horiz-adv-x="1024" />

    
    <glyph glyph-name="jipiao" unicode="&#58907;" d="M969.30591175 651.29730563c-0.53153943-0.5278136-1.11151362-0.96248354-1.65050474-1.47912081l0.07699873-0.07699874L768.54791251 472.79938674l57.74903433-222.84917752 19.17267938-74.00197205 65.37563341-252.2390892-0.13536825-0.07699873c3.4823294-11.2728595 0.88051743-23.99876013-8.08238133-32.91322413-12.92584854-12.85878458-33.86701445-12.85878458-46.78416976 0-0.60853817 0.59984494-1.03327334 1.29655937-1.58468354 1.9150323-0.62840893 0.54147542-1.3238806 0.98608014-1.922484 1.58592509-0.57997418 0.55886188-0.99601613 1.23694709-1.5287971 1.83679203l-0.23223774-0.09686948L551.62515183 280.09520483999995 384.44355979 131.57213920000004l-0.45826655 0.05961228-39.05945965-176.19168401-0.07203134-0.0211123c-0.38747796-7.86877159-3.49102262-15.6220457-9.53293695-21.65650834-12.92709008-12.84015658-33.86701445-12.84015658-46.78913714 0-3.88098367 3.86608029-6.45423043 8.48724575-8.00165676 13.36300278l-0.06706397-0.0211123-59.84662807 146.2391846L72.14920014 153.21001952999995c-0.49179792 0.17510977-0.97614538 0.36636445-1.45925007 0.57997419l-0.52657204 0.21485128 0.00869322 0.05712797c-3.51461922 1.58468354-6.84419148 3.73195359-9.73536916 6.59456729-12.92088115 12.85878458-12.92088115 33.70308221 0 46.54199603 6.04812447 6.0145931 13.8548007 9.10696023 21.76828121 9.49567973l0.01366061 0.07699873 177.45967817 38.92409139 149.4780975 166.48487761L25.34640116 716.83190389l0.14033686 0.31420386c-0.82835683 0.67684367-1.70763271 1.24688187-2.48134588 2.01686919-12.92088115 12.85381719-12.92088115 33.68817884 0 46.54199603 7.77314365 7.7296775 18.43746619 10.71772346 28.52057179 9.1504276l0.00496739 0.00496738 0.04843474-0.00993478c1.61448907-0.25583434 3.19047938-0.68677844 4.76150109-1.17981912l243.93688921-60.2750891 74.95576357-18.52315816 228.12483158-56.37050883 177.22495613 197.40358762 0.07824027-0.08320888c0.52284621 0.53774958 0.96496784 1.10778778 1.48781406 1.63932723 53.58986247 54.1263693 154.18868076 70.02039425 205.86599401 18.61133441C1039.70136368 804.66259695 1023.1131086 705.4236749300001 969.30591175 651.29730563zM876.34735316 828.28133081c-40.24548891 0-73.85418471-28.2846082-82.14769147-66.04750848l114.77900037-95.68580404c30.26918756 12.74204555 51.51958994 42.67964158 51.51958994 77.58241246C960.49949476 790.60536403 922.82352677 828.28133081 876.34735316 828.28133081z"  horiz-adv-x="1024" />

    
    <glyph glyph-name="zhuanzhang" unicode="&#58940;" d="M983.4816 385.392c-33.61066667-0.3232-198.39466667 94.8448-203.59893333 99.80586667-12.51626667 11.93386667-7.78666667 26.78933333 4.98453333 28.82133333s84.4832 10.55786667 84.4832 10.55786667c-44.07253333 117.79946667-142.4192 211.8784-271.49546667 242.3712-206.01386667 48.68586667-419.06133333-89.41546667-466.1472-300.1856-0.40533333-1.79733333-3.25013333-23.28533333-20.31466666-22.60373334-11.552 0.4608-49.39626667 15.50826667-63.0784 21.9264-15.62026667 7.32586667-19.84106667 5.4336-15.104 29.0144 53.584 267.94773333 327.9968 448.53013333 591.38026666 386.74346667 218.58026667-51.2672 370.42133333-240.93653333 387.104-457.04213333 2.7936-28.96106667-11.94986667-39.25013333-28.2144-39.40693334zM639.46453333 326.66240000000005c21.63626667 0 39.1776-17.52213333 39.1776-39.17546667 0-21.616-17.54133333-39.1776-39.1776-39.1776l-78.35306666 0 0-48.9696c0-27.0496-21.92106667-48.97173333-48.97173334-48.97173333-27.04853333 0-48.97066667 21.92106667-48.97066666 48.97173333l0 48.9696-78.35306667 0c-21.63626667 0-39.17546667 17.56266667-39.17546667 39.1776 0 21.65546667 17.54026667 39.17546667 39.17546667 39.17546667l78.35306667 0 0 39.17866667-78.35306667 0c-21.63626667 0-39.17546667 17.5584-39.17546667 39.1744 0 21.65333333 17.54026667 39.1776 39.17546667 39.1776l78.35306667 0 0 2.67946666-86.94186667 86.92373334c-15.408 15.41866667-15.408 40.4 0 55.80053333s40.38186667 15.39946667 55.79093333 0l79.46346667-79.4432 79.77173333 79.7696c15.40693333 15.38026667 40.38293333 15.38026667 55.78986667 0 15.40906667-15.4176 15.40906667-40.40213333 0-55.80053333l-85.92853333-85.9296 0-3.99893334 78.35306666 0c21.63626667 0 39.1776-17.52426667 39.1776-39.1776 0-21.61813333-17.54133333-39.1744-39.1776-39.1744l-78.35306666 0 0-39.17866666 78.35306666 0zM246.4288 271.37919999999997c17.18613333-10.9888 13.04426667-33.06026667-5.84213333-35.02506667s-78.02986667-7.17333333-78.02986667-7.17333333c46.8864-109.8816 141.91253333-196.5184 264.78186667-225.53813333 206.0128-48.66453333 416.6944 82.75413333 463.79306666 293.52426666 0.9664 4.32426667 0.93546667 3.64586667 2.6208 12.93013334s4.41493333 23.408 22.55146667 17.12213333 62.37333333-19.29066667 76.1536-22.97493333 12.22933333-9.11786667 10.5024-21.9232c-0.52586667-3.8944-1.32053333-7.46026667-2.15146667-11.2096-61.664-274.04906667-330.08106667-445.00906667-599.51893333-381.7856-218.32213333 51.21066667-370.0768 240.4576-387.056 456.23893333-2.30293333 37.07946667 23.89333333 44.64746667 50.672 30.48213333 21.06666667-11.14346667 164.33493333-93.6768 181.52106667-104.6656z"  horiz-adv-x="1024" />

    
    <glyph glyph-name="daijinquan" unicode="&#58984;" d="M1036.288 469.40068978L1036.288 704.39822222c0 64.07964445-49.74910578 116.50844445-110.45000533 116.50844445L98.04549689 820.90666667C37.34459733 820.90666667-12.288 768.47786667-12.288 704.39822222l0-234.99753244c47.53544533-6.52447289 82.72099555-31.10775467 82.72099555-85.40068978s-35.30205867-78.87621689-82.72099555-85.40068978L-12.288 63.60177778000002c0-64.07964445 49.63259733-116.50844445 110.33349689-116.50844445l827.79249778 0c60.70089955 0 110.45000533 52.4288 110.45000533 116.50844445L1036.288 298.59931022c-47.53544533 6.52447289-82.837504 31.10775467-82.837504 85.40068978C953.450496 438.17642667 988.75255467 462.87621689 1036.288 469.40068978zM978.03377778 254.55911821999996L978.03377778 63.60177778000002c0-31.57378845-23.88423111-58.25422222-52.19578311-58.25422223l-108.003328 0 0 58.25422223c0 16.07816533-13.04894578 29.12711111-29.12711112 29.12711111-16.07816533 0-29.12711111-13.04894578-29.1271111-29.12711111l0-58.25422223-495.1608889 0 0 58.25422223c0 16.07816533-13.04894578 29.12711111-29.1271111 29.12711111-16.07816533 0-29.12711111-13.04894578-29.12711112-29.12711111l0-58.25422223-108.11983644 0c-28.19504355 0-52.07927467 26.68043378-52.07927467 58.25422223L45.96622222 254.55911821999996c52.66181689 22.71914667 82.72099555 68.62347378 82.72099556 129.44088178 0 60.817408-30.17568711 106.72173511-82.72099556 129.44088178L45.96622222 704.39822222c0 31.57378845 23.88423111 58.25422222 52.07927467 58.25422223l108.11983644 0 0-58.25422223c0-16.07816533 13.04894578-29.12711111 29.12711112-29.12711111 16.07816533 0 29.12711111 13.04894578 29.1271111 29.12711111l0 58.25422223 495.1608889 0 0-58.25422223c0-16.07816533 13.04894578-29.12711111 29.1271111-29.12711111 16.07816533 0 29.12711111 13.04894578 29.12711112 29.12711111l0 58.25422223 108.003328 0c28.311552 0 52.19578311-26.68043378 52.19578311-58.25422223l0-190.95734044c-52.66181689-22.71914667-82.837504-68.62347378-82.837504-129.44088178C895.19627378 323.182592 925.37196089 277.27826488999995 978.03377778 254.55911821999996zM660.19874133 467.76957155l-70.13808355 10.13623467-31.34077156 63.49710223c-18.64135111 38.09826133-74.68191289 37.98175289-93.323264 0.11650844L433.93934222 477.90580622l-70.13808355-10.13623467c-21.20453689-3.145728-37.51571911-16.19467378-43.57415822-34.83602488-6.05843911-18.52484267-0.34952533-39.14683733 14.79657244-53.82690134l50.79768178-49.51608888-12.00036978-69.78855823c-2.91271111-16.777216 1.048576-32.38934755 10.95179378-44.15670044 15.14609778-18.05880889 41.71002311-22.36962133 64.54567822-10.71877689l62.68154311 32.97188978 62.68154311-32.97188978c8.62162489-4.54382933 17.59277511-6.87399822 26.68043378-6.87399822 14.680064 0 28.54456889 6.40796445 37.86524444 17.35975822 10.01972622 11.76735289 13.98101333 27.49599289 11.06830222 44.27320889l-12.00036977 69.90506667 50.68117333 49.39958044c15.14609778 14.79657245 20.85501155 35.41856711 14.79657244 53.94340978C697.71446045 451.57489778 681.40327822 464.62384355 660.19874133 467.76957155zM655.07236978 413.82616178l-53.94340978-52.66181689c-8.388608-8.27209955-13.51497955-23.88423111-11.41782755-35.41856711l12.46640355-78.87621689c-0.11650845-0.11650845-0.11650845-0.23301689-0.81555911-0.23301689l-70.48760889 36.23412622c-5.00986311 2.67969422-11.88386133 4.07779555-18.75785955 4.07779556-6.75748978 0-13.631488-1.28159289-18.75785956-3.96128711l-66.52632178-34.95253334c-2.79620267-1.39810133-4.54382933-1.16508445-5.12637156 3.61176178l12.69942045 74.09937067c1.98064355 11.65084445-3.02921955 27.262976-11.534336 35.651584L366.36444445 417.90395733c0.11650845 0.23301689 1.39810133 1.39810133 4.42732088 1.86413512l74.56540445 10.83528533c11.76735289 1.74762667 24.93280711 11.41782755 30.29219555 22.020096l36.35063467 71.18665955 36.35063467-71.18665955c5.24288-10.60226845 18.52484267-20.27246933 30.29219555-22.020096l74.448896-10.83528533C656.23745422 419.30205867 657.51904711 418.13697422 655.07236978 413.82616178z"  horiz-adv-x="1024" />

    
    <glyph glyph-name="xiajiantou" unicode="&#58891;" d="M1003.61543566 637.1142519499999c16.23027257-20.80595285 17.59249863-46.88616221 3.03880989-58.24968136l-474.67144989-370.25746944c-3.2833115-2.57309241-13.83182563-8.90685667-15.62483939-10.89780166-17.68564167-19.54851385-43.11384633-25.41656064-56.82924203-13.04010411l-447.04272839 403.12551879c-13.7153957 12.38809941-10.54851299 38.30530731 7.13712868 57.90039268 17.68564167 19.58344249 43.11384633 25.42820352 56.87581354 13.05174698l406.85126315-366.86937088 464.5071542 362.34026326C962.45760569 665.58126535 987.42009173 657.90856078 1003.61543566 637.1142519499999z"  horiz-adv-x="1024" />

    
    <glyph glyph-name="xiaoxi" unicode="&#58881;" d="M767.99417 512.008026c-35.327473 0-63.999161-28.671688-63.999161-63.999161s28.671688-63.999161 63.999161-63.999161 63.999161 28.671688 63.999161 63.999161S803.321643 512.008026 767.99417 512.008026L767.99417 512.008026zM511.999521 64.01689199999998c-37.375023 0-73.470203 4.351667-108.157754 11.744211l-150.653149-90.558409 2.015604 148.44487C139.718814 203.08655899999997 64.008386 317.90009799999996 64.008386 448.008865c0 212.059679 200.572036 383.991974 447.991135 383.991974s447.990137-171.932294 447.990137-383.991974C959.989657 235.917239 759.41862 64.01689199999998 511.999521 64.01689199999998L511.999521 64.01689199999998zM511.999521 896C229.252949 896 0.010223 695.396018 0.010223 448.008865c0-141.404733 75.03856-267.322561 191.996486-349.400261l0-226.587201 224.283083 136.093682c31.039698-5.120372 62.974887-8.095359 95.709729-8.095359 282.745574 0 511.989298 200.572036 511.989298 447.991135C1023.988819 695.396018 794.746093 896 511.999521 896L511.999521 896 511.999521 896zM256.004872 512.008026c-35.327473 0-63.998163-28.671688-63.998163-63.999161s28.671688-63.999161 63.998163-63.999161 63.999161 28.671688 63.999161 63.999161S291.332345 512.008026 256.004872 512.008026L256.004872 512.008026zM511.999521 512.008026c-35.327473 0-63.999161-28.671688-63.999161-63.999161s28.671688-63.999161 63.999161-63.999161 63.999161 28.671688 63.999161 63.999161S547.326994 512.008026 511.999521 512.008026L511.999521 512.008026z"  horiz-adv-x="1024" />

    
    <glyph glyph-name="didichuxing" unicode="&#58910;" d="M1213.830124 668.456157l-200.937177 0 0-174.764729 0-13.122684c-3.496952-211.620282-176.753517-382.699124-389.212404-382.699124s-385.69225 171.052325-389.212404 382.699124l0 13.122684L234.468139 668.456157l44.827278 0 596.069539 0 92.720603 0 44.80739 0L1012.892947 896 234.468139 896l-54.910431 0-124.693681 0c-30.292553 0-54.864026-24.544956-54.864026-54.837509l0-172.706333 0-194.642663c0-40.683969 4.30904-81.394456 12.741501-121.050885 8.213693-38.721699 20.474571-76.823559 36.471054-113.244893 15.661704-35.682168 35.035812-70.118029 57.59198-102.280042 22.267794-31.777515 47.873438-61.639163 75.984953-88.842466 16.331262-15.708109 33.623773-30.627333 51.655449-44.565421 13.099483-10.129559 26.580149-19.685685 40.422112-28.761187 33.358601-21.720878 68.991049-40.422112 105.96593-55.510382 37.740564-15.469455 77.227946-27.322629 117.364998-35.247949 41.091671-8.144087 83.310321-12.260877 125.432848-12.260877 42.172245 0 84.367693 4.116791 125.459364 12.260877 40.160255 7.925319 79.624435 19.755292 117.364998 35.247949 36.97488 15.08827 72.607329 33.789504 105.96593 55.510382 13.865166 9.075502 27.345832 18.631628 40.422112 28.761187 18.054879 13.938088 35.347388 28.857311 51.655449 44.565421 28.161236 27.203303 53.710529 57.064952 76.008156 88.842466 22.532966 32.185216 41.930276 66.597874 57.568777 102.280042 16.019686 36.421334 28.280562 74.496677 36.517459 113.244893 8.429146 39.633227 12.691781 80.340399 12.691781 121.050885L1247.284849 668.456157 1213.830124 668.456157 1213.830124 668.456157z"  horiz-adv-x="1248" />

    
    <glyph glyph-name="yuebao" unicode="&#58916;" d="M382.88200704 674.45785145l267.76690461 0 71.80091164 98.49819705c0 0 53.83118165 65.68719815-17.97089394 94.91566137-68.64800085 27.96753123-178.34788067 25.77749219-187.70066204 25.5457974-9.40750393 0.23169479-119.05266233 2.42173383-187.70066205-25.5457974-71.77413291-29.22729813-17.99767267-94.91566137-17.99767267-94.91566137L382.88200704 674.45785145zM636.1266597 624.00894635L392.53052075 624.00894635c0 0-322.30364957-120.21462813-322.30364957-451.88619606 0-289.89549682 354.66755869-298.89782557 444.10171847-296.6030006 89.4562816-2.29366101 444.10171847 6.70750379 444.10171848 296.6030006C958.43030926 503.79431822 636.1266597 624.00894635 636.1266597 624.00894635zM603.03855843 221.33284522999998l72.77076936 0c16.90323513 0 30.60698795-13.58266595 30.60698794-30.60000313 0-16.89974215-13.84696149-30.60000313-30.72923875-30.60000313L557.18396245 160.13284010999996l0-131.86340068c0-17.16287374-13.87374023-31.07619954-31.25782983-31.07619954-17.26300274 0-31.25782983 14.16132039-31.25782983 31.07619954L494.66830393 160.13284010999996l-110.75123883 0c-16.97076451 0-30.72923875 13.58266595-30.72923875 30.60000312 0 16.89974215 13.61410162 30.60000313 30.40323698 30.60000314l111.0772406 0 0 62.84981134-109.82329458 0c-17.48421859 0-31.65718301 14.02393373-31.657183 31.59547448 0 17.44928995 14.28473629 31.59547449 31.657183 31.5954745l70.99056242 0-82.21203798 82.21203797c-10.96649501 10.96649501-11.00724565 28.70569415 0.07917227 39.79327601 11.01073863 11.01073863 28.76623758 11.1062107 39.79327602 0.07917227l94.85977486-94.85977486c7.37464434-7.37464434 9.78473529-17.80789248 7.21630095-27.22587534l6.13117724 0c-1.59042674 8.89637888 1.05135787 18.35976818 7.91138532 25.21979563l96.5456748 96.5456748c11.2226395 11.2226395 29.29366357 11.12483954 40.50000328-0.08150016 11.28434802-11.28434802 11.24243342-29.33907115 0.08033621-40.50000327l-81.18512981-81.18396587 89.20246499 0c17.48421859 0 31.65718301-14.02393373 31.65718301-31.59547448 0-17.44928995-14.28473629-31.59547449-31.65718301-31.59547449L557.18396245 284.18149262l0-62.84981134L603.03855843 221.33168128z"  horiz-adv-x="1024" />

    
    <glyph glyph-name="fangzi" unicode="&#58945;" d="M1008.7810848 552.9167648L593.53770667 876.20949333c-35.7353248 27.88920853-91.82321813 27.8528-127.54033814 0L50.7721952 552.9167648c-14.19946667-11.05009813-16.62065813-31.38446187-5.40672-45.32906667 11.19573333-13.98101333 31.34805333-16.3657952 45.5293152-5.33390187L111.50222187 514.56l0-527.92888854c0-55.41432853 51.6096-91.02222187 103.74712853-91.02222186l655.26897813 0C922.01870187-104.39111147000006 948.90666667-71.27722667 948.90666667-13.368888539999944L948.90666667 514.56l18.73237333-12.3062048c6.0438752-4.67854187 13.43488-6.93589333 20.55281813-6.93589334 9.66656 0 19.36952853 4.18702187 25.81390187 12.2697952C1025.23790187 521.55050666 1022.9987552 541.86666666 1008.7810848 552.9167648zM639.43111147-31.573333339999976L420.97777813-31.573333339999976 420.97777813 241.49333333000004c0 37.55576853 41.66997333 91.02222187 109.22666667 91.02222187s109.22666667-53.48465813 109.22666667-91.02222187L639.43111147-31.573333339999976z"  horiz-adv-x="1024" />

    
    <glyph glyph-name="xiaolaba" unicode="&#58956;" d="M527.40711651 816.92099357l-262.25163946-168.42692267h-130.83183446c-72.69858304 0-131.61773397-58.19728782-131.61773397-131.09380096v-262.71153607c0-72.43661653 58.19845291-131.09380096 131.61773397-131.09380096h130.83183446l262.25163946-168.29535688c37.07115406-16.07542215 65.80944896 1.11539427 65.80944896 37.59625103V779.32590649c0 36.5460571-29.46015801 53.27697693-65.80944896 37.59508708z m220.98320043-211.6653477c-12.33570589 13.25433515-33.13467278 13.97619826-46.32147854 1.57529088-13.25433515-12.40090624-13.91099677-33.13467278-1.57529088-46.38784285 6.10207061-6.56080213 16.53415367-21.06209735 27.29456867-42.97645966 18.37141219-37.39948601 29.46015801-81.29340871 29.46015802-131.42213177 0-50.12872306-11.08874581-94.08784725-29.46015802-131.4221329-10.76041501-21.91319723-21.19249806-36.41449245-27.29456867-42.97645853-12.40090624-13.25317006-11.67904313-33.98693661 1.57529088-46.38784398 13.25317006-12.40090624 33.98693661-11.67904313 46.38784398 1.57529088 10.30168235 11.02238151 24.47348167 30.70595299 38.25291378 58.85395057 22.63622429 46.06067712 36.15252594 99.73118521 36.15252594 160.42239432 0 60.69120797-13.51630165 114.36288114-36.15252594 160.42239317-13.84579641 28.01759573-28.01876082 47.76753266-38.31927922 58.72354987z m201.1668992 40.61410418c-26.50750521 44.87891741-53.27697693 75.97956665-72.04192028 92.71048646-13.5174656 12.07141149-34.25006706 10.89081571-46.32380757-2.69068515-12.07141149-13.58150201-10.89197966-34.24890311 2.69068629-46.32147968 3.08305351-2.75472157 9.25148843-8.92315762 17.51798329-18.50181177 14.17179933-16.40258901 28.34359865-35.95575979 41.6642981-58.52678372 38.12018403-64.69405469 61.01953991-140.34412544 61.0195399-226.49380977s-22.89935474-161.79975509-61.08474026-226.56017408c-13.3195355-22.56985998-27.55769913-42.12303075-41.6642981-58.52561977-8.26649486-9.57865529-14.43492978-15.74709021-17.51914837-18.50181291-13.51630165-12.07257543-14.69573234-32.80634197-2.68952121-46.32380643 12.00737507-13.51630165 32.80634197-14.69573234 46.32264362-2.68952235 18.76610731 16.73091982 45.53557902 47.76636871 72.04308424 92.71048647 43.82988743 74.33791033 70.13946254 161.27465813 70.13946254 259.89044907 0.0663643 98.54826155-26.24437475 185.48500935-70.07426219 259.82408363z"  horiz-adv-x="1024" />

    
    <glyph glyph-name="dingwei" unicode="&#58906;" d="M512.789409-106.66666667000004S156.234477 348.28556332999995 156.234477 543.30948633c0 194.989948 159.651417 353.069543 356.554932 353.069542 196.886527 0 356.527952-158.060609 356.527952-353.069542-0.001999-195.030917-356.527952-649.976153-356.527952-649.976153z m-3.699229 800.226612c-83.804229 0-151.769321-67.288599-151.769322-150.326402 0-82.991837 67.954101-150.282435 151.769322-150.282435 83.850194 0 151.785309 67.288599 151.785309 150.282435 0 83.01482-67.930119 150.326402-151.785309 150.326402z"  horiz-adv-x="1024" />

    
    <glyph glyph-name="shenghuojiaofei" unicode="&#58943;" d="M513.24275675 891.04475022s-431.85796741-348.59326578-431.85796742-585.95980325c0-237.36653748 193.24867318-429.37245392 431.85796742-429.37245394s431.85796741 192.62729482 431.8579674 429.37245394c-0.62137837 237.36653748-431.85796741 585.95980325-431.8579674 585.95980325m-37.9040806-823.32634074l37.28270222 191.38453807h-187.65626785l244.20169956 306.3395366-37.28270223-191.38453807h187.65626785l-244.20169955-306.3395366z"  horiz-adv-x="1024" />

    
    <glyph glyph-name="saoyisao" unicode="&#58931;" d="M972.79488 435.45088H51.2c-28.27264 0-51.2-22.91712-51.2-51.1744 0-28.2624 22.92224-51.1744 51.2-51.1744h921.6c28.27776 0 51.2 22.912 51.2 51.1744 0 28.25728-22.92736 51.1744-51.20512 51.1744m0 0zM59.8016 589.6704c25.16992 4.096 42.59328 27.71968 42.59328 53.21728v125.184A25.6 25.6 0 0 0 128 793.65632h176.45568c25.50784 0 49.14688 17.41824 53.24288 42.5728A51.2256 51.2256 0 0 1 307.19488 896H51.2C22.92224 896 0 873.088 0 844.8256v-204.68224c0-31.08352 27.7248-55.69536 59.8016-50.47296m0 0zM972.79488 896h-253.25568c-25.4976 0-49.14688-17.41824-53.24288-42.57792a51.22048 51.22048 0 0 1 50.49856-59.76576h179.2a25.58976 25.58976 0 0 0 25.59488-25.58976v-125.184c0-25.48736 17.42336-49.11616 42.5984-53.21728 32.07168-5.21216 59.8016 19.39968 59.8016 50.47296V844.8256C1024 873.088 1001.07776 896 972.79488 896m0 0zM304.45056-25.098240000000033H128a25.58464 25.58464 0 0 0-25.59488 25.58976v125.184c0 25.48736-17.42336 49.11616-42.5984 53.21216C27.7248 184.11008000000004 0 159.49824 0 128.41984000000002v-204.69248c0-28.25728 22.92224-51.16928 51.20512-51.16928H307.2a51.21536 51.21536 0 0 1 50.49856 59.76576c-4.10112 25.1648-27.74016 42.57792-53.248 42.57792m0 0zM964.1984 178.89279999999997c-25.17504-4.096-42.5984-27.7248-42.5984-53.21216v-125.18912a25.58976 25.58976 0 0 0-25.59488-25.58464h-176.4608c-25.4976 0-49.14688-17.41824-53.24288-42.5728A51.22048 51.22048 0 0 1 716.8-127.43679999999995h256c28.27776 0 51.2 22.912 51.2 51.1744v204.69248c0 31.06816-27.72992 55.68-59.8016 50.46272m0 0z"  horiz-adv-x="1024" />

    
    <glyph glyph-name="waimai" unicode="&#58915;" d="M144.3874816 209.222576c0-37.70569493 31.84310613-68.24333547 71.12278187-68.24333547 39.32115413 0 71.18499947 30.53873173 71.18499946 68.24333547 0 37.74717333-31.86384533 68.24333547-71.18499946 68.24333547-39.2796768-0.0010912-71.12278293-30.49616213-71.12278187-68.24333547z m599.74912-68.24442667c39.32115413 0 71.18499947 30.53873173 71.18499947 68.24333547 0 37.74717333-31.86275307 68.24333547-71.18499947 68.2433344-39.2796768 0-71.14352107-30.49507093-71.14352107-68.2433344 0-37.70460373 31.86275307-68.24333547 71.14352107-68.24333547z m-62.93960747 292.53022294h70.89465387c2.23872107 0 4.6619104-0.53812267 7.04471253-0.911424 1.90580587 0.24886827 3.72865493 0.91142507 5.67593814 0.911424h118.58672533c39.2796768 0 94.86566933-60.0394208 94.8656704-97.57811307v-15.7867488c0-24.69578987-28.4462752-22.95480427-64.61837547-22.66554987 14.79346027-26.18681493 23.30845973-56.0608064 23.30845867-87.96613013 0-102.3033312-86.30919253-185.25608-192.8170848-185.25608-73.44336853 0-137.23218347 39.48815787-169.84154027 97.51698773h-188.94325653c-32.630096-58.0288288-96.58482347-97.51698773-170.13188693-97.51698773-106.69454293 0-193.169648 82.95274773-193.16964694 185.25608 0 62.3589152 32.298272 117.1775648 81.54358614 150.73982507-1.11881493 4.76451413-1.78137173 9.69603093-1.78137067 14.77162986l44.64562133 71.37165014c-37.85086827 19.1017152-62.7529568 53.90722453-62.7529568 84.94150933v24.38470507c0 40.42032213 33.60373867 73.11154347 74.99661014 73.11154346h154.1792256c31.6553632 32.85822507 85.1696384 70.48096533 111.87492906 55.68859627 34.14186133-18.89432533 22.49854613-69.40253653 8.80425387-100.9967744l-24.88244053-60.3505056v-16.2211776c0-33.3756096-22.99519147-61.17897493-54.36239147-69.88062507-34.72146133-123.35123947 97.7876864-188.1966528 183.889488-96.3774336a109.63074987 109.63074987 0 0 1 7.83170347 15.475664c0.39294933-0.331824 0.55886187-0.47699733 0.51738346-0.41368853 30.20581547 65.61166507 105.36833813 76.17764267 134.6419904 77.75162347z m241.48170667 58.797264H646.64035307c-41.6220928 0-75.288048 30.95132907-75.288048 69.07180373V676.48219627c0 38.16086187 33.6866944 69.07180373 75.288048 69.07180373h276.03834773c41.55987627 0 75.288048-30.91094187 75.288048-69.07180373v-115.10584747c0-38.11938347-33.7281728-69.07071253-75.288048-69.07071253z"  horiz-adv-x="1024" />

    
    <glyph glyph-name="yewan" unicode="&#59133;" d="M830.57777778 742.62755555c12.17422222-15.24622222 26.28266667-29.35466667 41.64266667-41.30133333-15.47377778-12.288-29.80977778-26.624-42.09777778-42.21155555-12.06044445 15.36-26.16888889 29.46844445-41.52888889 41.64266666 15.58755555 12.06044445 29.80977778 26.28266667 41.984 41.87022222m-0.56888889 107.52c0-69.85955555-84.53688889-148.48-148.48-148.48 63.94311111-1.024 148.36622222-82.48888889 148.36622222-148.48 0 65.99111111 86.58488889 148.59377778 148.59377778 148.59377778-63.94311111 0-148.48 79.53066667-148.48 148.36622222zM448.28444445 542.6062222200001c-3.072 0-6.144 1.36533333-8.30577778 3.98222223-3.64088889 4.55111111-2.95822222 11.264 1.70666666 14.90488888l106.04088889 84.87822222c4.66488889 3.64088889 11.264 2.84444445 14.90488889-1.70666666 3.64088889-4.55111111 2.95822222-11.264-1.70666666-14.90488889l-106.0408889-84.87822222c-2.048-1.47911111-4.32355555-2.27555555-6.5991111-2.27555556zM320.96711111 266.92266667c-3.18577778 0-6.25777778 1.36533333-8.41955556 4.096-3.64088889 4.66488889-2.73066667 11.264 1.82044445 14.90488888l381.72444445 296.96c4.55111111 3.64088889 11.264 2.73066667 14.90488888-1.82044444 3.64088889-4.66488889 2.73066667-11.264-1.82044444-14.90488889L327.45244445 269.08444445c-1.93422222-1.47911111-4.20977778-2.16177778-6.48533334-2.16177778zM525.19822222-125.952c-288.19911111 0-522.69511111 232.22044445-522.69511111 517.68888889 0 237.11288889 162.24711111 443.27822222 394.58133334 501.30488889 8.192 2.048 17.06666667-1.024 22.18666666-7.96444445s5.57511111-16.15644445 1.13777778-23.552C379.79022222 794.1688888900001 358.4 717.48266667 358.4 639.88622222c0-69.632 17.06666667-138.92266667 49.49333333-200.36266667 5.46133333-10.35377778 1.47911111-23.21066667-8.87466666-28.672-10.35377778-5.46133333-23.21066667-1.47911111-28.672 8.87466667-35.49866667 67.47022222-54.272 143.58755555-54.272 220.04622223 0 68.03911111 15.01866667 135.39555555 43.69066666 197.40444444-187.50577778-67.92533333-314.70933333-244.62222222-314.70933333-445.66755556 0-262.03022222 215.49511111-475.24977778 480.256-475.24977778 188.64355555 0 357.94488889 109.11288889 435.76888889 276.0248889-110.47822222-40.16355555-234.04088889-38.00177778-342.69866667 5.12-51.65511111 20.48-98.98666667 49.49333333-140.62933333 86.12977777-8.76088889 7.73688889-9.67111111 21.16266667-1.93422222 29.92355556 7.73688889 8.76088889 21.16266667 9.67111111 29.92355555 1.93422222 38.11555555-33.45066667 81.23733333-59.96088889 128.34133333-78.62044445 51.76888889-20.59377778 106.72355555-30.94755555 163.04355556-30.94755555 67.24266667 0 132.43733333 15.13244445 193.536 45.056 7.73688889 3.75466667 16.95288889 2.50311111 23.32444444-3.18577778s8.76088889-14.67733333 6.03022223-22.75555555c-72.36266667-209.92-271.13244445-350.89066667-494.81955556-350.89066667z"  horiz-adv-x="1024" />

    
    <glyph glyph-name="gouwuche" unicode="&#58914;" d="M406.736182-50.75926300000003m-77.240737 0a77.240737 77.240737 0 1 1 154.481473 0 77.240737 77.240737 0 1 1-154.481473 0ZM1015.373632-50.75926300000003m-77.240737 0a77.240737 77.240737 0 1 1 154.481473 0 77.240737 77.240737 0 1 1-154.481473 0ZM620.370371 84.16759300000001H404.291855a160.836724 160.836724 0 0 0-141.770973 146.659626c0 2.933193-48.886542 345.627853-64.530235 491.309749a132.971395 132.971395 0 0 1-38.620369 91.417834 48.886542 48.886542 0 0 1-28.84306 9.777309H36.176192A35.687176 35.687176 0 1 0 36.176192 895.684193h86.040314a116.34997 116.34997 0 0 0 79.685064-23.954406 195.546169 195.546169 0 0 0 66.485697-140.304376c17.599155-146.659626 64.04137-488.865422 64.530236-488.865421S342.694811 162.38606000000004 408.691643 157.00854100000004c74.307544-4.399789 677.567474 0 684.411591 0a34.709445 34.709445 0 0 0 35.687175-35.198311 35.687176 35.687176 0 0 0-35.19831-35.687175c-17.599155 0-275.720098-1.955462-473.221728-1.955462zM289.897346 293.890859S782.673691 301.22384 920.53374 309.04568700000004 1075.992944 391.175078 1075.992944 391.175078s56.708389 217.545113 72.840948 301.1411C1171.321701 815.510264 1062.304712 797.911109 1062.304712 797.911109H227.811437zM258.609959 260.15914499999997L187.724473 833.598284h872.135912a120.749759 120.749759 0 0 0 97.773084-30.309656 126.616144 126.616144 0 0 0 24.443271-117.816566c-16.132559-83.595987-70.885486-293.319253-73.329813-303.096562s-27.376464-97.773084-186.746591-108.039258c-136.882318-8.799578-612.059508-15.643693-632.10299-16.132559z m9.777308 504.509115l53.286331-432.157033c111.461316 0 482.021306 7.821847 596.90468 15.154828 105.594931 6.844116 121.72749 53.286331 122.216356 55.241793S1097.014157 617.519768 1112.65785 700.138024a65.996832 65.996832 0 0 1-5.377519 54.752928 52.3086 52.3086 0 0 1-39.109234 9.288443H267.898402z"  horiz-adv-x="1187" />

    
    <glyph glyph-name="cilun" unicode="&#58889;" d="M529.59232 604.01664c-120.35527111 0-214.38236445-97.78744889-214.38236445-218.14272s97.78744889-218.14272 214.38236445-218.14272c120.31089778 0 214.33799111 97.78744889 214.33799111 218.14272s-97.74421333 218.14272-214.33799111 218.14272zM684.91377778 385.84433778c0-85.06481778-70.27143111-155.33511111-155.33624889-155.33511111s-155.33624889 70.27143111-155.33624889 155.33511111 70.27143111 155.33624889 155.33624889 155.33624889 155.33624889-70.27143111 155.33624889-155.33624889zM1046.78627555 486.86535111c0 11.01824-7.34663111 18.36487111-18.3648711 22.03875556-55.09461333 11.01824-99.16871111 44.07409778-128.55296 95.49596444-17.75502222 28.61852445-28.27946667 63.33667555-28.27946667 100.51356444 0 17.00522667 2.2016 33.49504 6.33628444 49.20206223l3.60789333 11.87953777c3.67274667 7.34663111 0 18.36487111-7.3466311 25.71036445-51.42072889 47.74798222-110.18808889 80.80497778-172.62819556 102.84145778-7.34663111 3.67274667-18.36487111 0-25.71036444-7.34663111-36.72860445-44.07409778-91.82321778-66.11285333-146.91783112-66.11285334s-106.51534222 25.71150222-146.91783111 66.11285334c-7.34663111 7.34663111-14.69212445 11.01824-25.71036444 7.34663111-62.43896889-25.71036445-121.20746667-58.76736-172.62819556-102.84145778-7.34663111-3.67274667-11.01824-14.69212445-7.34663111-25.71036445 14.69212445-55.09461333 11.01824-110.18808889-18.36487111-161.60881777-25.71036445-47.74798222-73.45948445-80.80497778-128.55296-95.49710223-9.74848-5.21102222-16.83228445-14.32348445-19.21251555-25.1949511-6.49784889-33.57240889-10.17059555-66.62940445-10.17059556-99.68526223 0.03413333-36.58410667 4.07552-72.20679111 11.70887111-106.47438222-0.69176889-7.38531555 6.65486222-14.73194667 17.67310222-18.40583111 55.09461333-11.01824 99.16871111-44.07409778 128.55296-95.49596444 17.81077333-28.52067555 28.37390222-63.15918222 28.37390223-100.26439112 0-13.47128889-1.39150222-26.61603555-4.0402489-39.30112l-5.99836444-22.07288888c-3.67274667-7.34663111 0-18.36487111 7.34663111-25.71036445 51.42072889-47.74798222 110.18808889-80.80497778 172.62819556-102.84145778h7.34663111c7.20782222 0.15132445 13.72046222 2.99576889 18.60152889 7.56508445 36.49194667 43.85564445 91.58656 65.8944 146.68003555 65.8944s106.51534222-25.71150222 146.91783112-66.11285334c7.34663111-7.34663111 14.69212445-11.01824 25.71150222-7.34663111 62.43896889 25.71036445 121.20746667 58.76736 172.62819555 102.84145778 7.34663111 3.67274667 11.01824 14.69212445 7.34663111 25.71036445-14.69212445 55.09461333-11.01824 110.18808889 18.36487112 161.60881777 25.71036445 47.74798222 73.45948445 80.80497778 128.55296 95.49710223 9.74848 5.21102222 16.83228445 14.32348445 19.21251555 25.1949511 6.49784889 33.57240889 10.17059555 66.62940445 10.17059555 99.68526223-0.03072 36.58410667-4.06983111 72.21020445-11.70090666 106.48120889zM825.05841778 12.01265778000004c-36.11192889-32.51313778-79.45329778-57.78318222-126.34908445-75.83857778-47.01411555 43.34136889-104.73699555 68.62506667-169.74848 68.62506667-61.39790222 0-122.79239111-25.28483555-169.74848-68.62506667-43.34136889 18.05653333-126.34908445 75.83857778-126.34908444 75.83857778l2.80689778 13.78190222c9.91687111 57.29848889-1.35168 116.93169778-28.09059556 170.42432-32.63032889 54.16732445-83.18520889 97.50983111-144.59676444 115.58001778-3.61358222 25.28483555-7.22716445 50.56853333-7.22716445 75.85223111s3.61358222 50.56853333 7.22716445 75.83857778c61.39790222 18.05539555 111.96643555 61.39676445 144.46364444 115.58001778 28.89955555 57.78318222 39.66862222 122.79239111 25.28369778 184.19029333 36.12672 32.49834667 79.46808889 57.76839111 126.42190222 75.83857777 47.01411555-43.34136889 108.35171555-68.62506667 169.74848-68.62506666 65.01148445 0 122.79239111 25.28369778 169.74848 68.62506666 42.35605333-17.62986667 87.37223111-44.32554667 126.34908444-75.7805511l-2.79096888-13.78190223c-10.40270222-57.73767111-1.98314667-120.31203555 28.12017778-170.42432 32.52679111-54.28565333 83.12604445-97.58151111 144.47843555-115.63918222 3.61358222-25.28483555 7.22830222-50.56853333 7.22830222-75.85336889s-3.61358222-50.56853333-7.22830222-75.85223111c-61.35239111-18.04060445-111.95050667-61.38197333-144.46364445-115.56522667-28.89955555-57.76839111-39.72551111-122.79239111-25.28483555-184.19029333z"  horiz-adv-x="1057" />

    
    <glyph glyph-name="shanchu" unicode="&#58917;" d="M512 896c-283.105882 0-512-228.894118-512-512s228.894118-512 512-512 512 228.894118 512 512S795.105882 896 512 896z m222.870588-644.517647c24.094118-24.094118 24.094118-66.258824 0-90.352941-24.094118-24.094118-66.258824-24.094118-90.352941 0l-132.517647 132.517647-132.517647-138.541177c-24.094118-24.094118-66.258824-24.094118-90.352941 0-12.047059 18.070588-18.070588 30.117647-18.070588 48.188236s6.023529 36.141176 18.070588 48.188235l132.517647 132.517647-132.517647 126.494118c-12.047059 18.070588-18.070588 30.117647-18.070588 48.188235 0 18.070588 6.023529 36.141176 18.070588 48.188235 24.094118 24.094118 66.258824 24.094118 90.352941 0l132.517647-132.517647 132.517647 132.517647c24.094118 24.094118 66.258824 24.094118 90.352941 0 24.094118-24.094118 24.094118-66.258824 0-90.352941l-132.517647-132.517647 132.517647-132.517647z"  horiz-adv-x="1024" />

    
    <glyph glyph-name="zhifubao" unicode="&#58888;" d="M1024 180.39057067V684.52989155c0 108.71451497-88.1580563 196.90776652-196.90776652 196.90776653H196.90655289c-108.71451497 0-196.90776652-88.1580563-196.90776652-196.90776653v-630.18568058c0-108.71451497 88.1580563-196.90776652 196.90776652-196.90776652h630.18568059c96.88769422 0 177.47391525 70.01914785 193.86398341 162.2307271-52.19821037 22.45578903-278.57654518 120.18574222-396.44304119 176.56247942-89.6981523-108.66718341-183.67313541-173.86943525-325.32313125-173.86943527-141.64999585 0-236.17475318 87.13618015-224.77877097 193.97563733 7.47959941 70.12352 55.55996445 184.60763022 264.2981926 164.91648949 110.01673955-10.37896059 160.39571911-30.90143763 250.20552533-60.46545541 23.07838103 42.53165037 42.45155082 89.37532682 56.99447467 139.23487289H248.12900503v39.38470875H444.91055408v70.89174755H204.83155437v43.32293688H444.91055408v102.12814697s2.26220563 16.02597925 19.82949451 16.02597926h98.46177186v-118.15412623h255.99939318v-43.32293688H563.20060682v-70.89174755h208.73822815c-19.13772563-78.20265245-48.20294163-149.94029985-84.70285275-212.72257423 60.71789037-21.90358755 336.76401778-106.29332385 336.76401778-106.29332385z m-740.43058252-90.5828883c-149.66237867 0-173.29174755 94.5235437-165.41529126 133.90825245s51.20060682 90.58531555 134.40098608 90.58531555c95.67406459 0 181.21432178-24.41094637 284.02938311-74.48894578-72.11872711-93.98347852-160.89694815-150.00462222-253.0138643-150.00462222z"  horiz-adv-x="1025" />

    
    <glyph glyph-name="jiudian" unicode="&#59547;" d="M948.90666667-31.573333339999976h48.54518556v-48.54518556H26.54814777v48.54518556h48.54518556V793.62199666A48.54518557 48.54518557 0 0 0 123.56570112 842.24h534.14267221C684.48104334 842.24 706.18074112 820.3461211 706.18074112 793.62199666V-31.573333339999976h194.18073998V502.42370332h-145.63555555v48.54518556h169.9081489a24.27259221 24.27259221 0 0 0 24.27259222-24.27259221v-558.26963001z m-291.27111112 0V793.62199666L123.56570112 793.69481443 123.6385189-31.573333339999976h533.99703665zM245.0014811 648.05925888h291.27111111v-48.54518443H245.0014811v48.54518443z m0-291.27111112h291.27111111v-48.54518442H245.0014811v48.54518442z m0 145.63555556h291.27111111v-48.54518442H245.0014811v48.54518442z m0-291.27111111h291.27111111v-48.54518443H245.0014811v48.54518443z"  horiz-adv-x="1024" />

    
    <glyph glyph-name="dingdan" unicode="&#58983;" d="M789.78 800.67h-83.34V856.22a27.78 27.78 0 1 1-55.56 0v-55.55H373.11V856.22a27.78 27.78 0 1 1-55.56 0v-55.55h-83.33a111.22 111.22 0 0 1-111.11-111.11v-694.45A111.22 111.22 0 0 1 234.22-116h555.56a111.22 111.22 0 0 1 111.11 111.11V689.56A111.22 111.22 0 0 1 789.78 800.67z m55.56-805.56a55.63 55.63 0 0 0-55.56-55.56H234.22a55.63 55.63 0 0 0-55.56 55.56V689.56a55.63 55.63 0 0 0 55.56 55.56h83.33v-55.56a27.78 27.78 0 1 1 55.56 0v55.55h277.78v-55.56a27.78 27.78 0 1 1 55.56 0v55.56h83.33a55.63 55.63 0 0 0 55.56-55.56zM734.22 328.44000000000005H289.78a27.78 27.78 0 1 1 0-55.56h444.44a27.78 27.78 0 1 1 0 55.56zM734.22 495.11H289.78a27.78 27.78 0 1 1 0-55.56h444.44a27.78 27.78 0 1 1 0 55.56zM734.22 161.77999999999997H289.78a27.78 27.78 0 0 1 0-55.56h444.44a27.78 27.78 0 0 1 0 55.56z"  horiz-adv-x="1024" />

    
    <glyph glyph-name="koubei" unicode="&#58995;" d="M1056 896H95.68C42.56 896 0 852.992 0 800.192v-237.44c0-246.528 155.072-468.672 372.992-550.912v-91.136c0-18.56 6.08-24 21.952-25.408C762.176-134.7840000000001 1152 147.58399999999995 1152 562.816V800.128C1152 852.992 1109.12 896 1056 896z m-149.952-518.784c-57.728-97.536-147.648-158.464-260.48-175.744-24.32-3.776-47.296-5.12-67.52-5.12-50.048 0-84.16 8.128-86.144 8.512l-1.728 0.32c-158.72 48.064-235.456 153.728-271.616 233.984-38.848 85.696-40.512 159.872-40.512 164.224h-0.32a28.928 28.928 0 0 0 29.056 28.48c15.488 0 28.032-12.16 28.992-27.456h0.384c0-0.64 1.664-67.712 36.48-143.232 45.568-99.2 123.968-166.592 233.792-200.128 6.72-1.344 63.488-13.184 132.416-2.048 95.232 15.232 168.256 65.024 216.896 147.968l0.32-0.32a28.8 28.8 0 0 0 38.848 9.856c13.824-7.808 18.56-25.408 11.136-39.296z m40.192 167.936a43.712 43.712 0 0 0 0 87.36 43.712 43.712 0 0 0 0-87.36z"  horiz-adv-x="1152" />

    
    <glyph glyph-name="ling" unicode="&#58944;" d="M836.266667 206.506667v262.826666c0 122.88-71.68 228.693333-174.08 283.306667-3.413333 78.506667-68.266667 143.36-150.186667 143.36s-146.773333-61.44-150.186667-139.946667c-102.4-54.613333-174.08-160.426667-174.08-283.306666v-262.826667c-58.026667-3.413333-102.4-47.786667-102.4-102.4 0-58.026667 47.786667-102.4 109.226667-102.4h167.253333c10.24-75.093333 71.68-129.706667 150.186667-129.706667 78.506667 0 139.946667 58.026667 150.186667 129.706667h167.253333c61.44 0 109.226667 44.373333 109.226667 102.4 0 51.2-44.373333 95.573333-102.4 98.986667zM512 827.733333c34.133333 0 61.44-20.48 75.093333-47.786666-23.893333 6.826667-47.786667 10.24-75.093333 10.24-27.306667 0-51.2-3.413333-75.093333-10.24 13.653333 30.72 40.96 47.786667 75.093333 47.786666z m0-887.466666c-40.96 0-71.68 27.306667-81.92 64.853333h163.84C583.68-32.42666699999995 552.96-59.733333000000016 512-59.733333000000016z m317.44 129.706666H194.56c-23.893333 0-40.96 17.066667-40.96 34.133334s17.066667 34.133333 37.546667 34.133333H256v327.68c0 139.946667 116.053333 252.586667 256 252.586667s256-112.64 256-252.586667v-327.68h64.853333c20.48 0 37.546667-17.066667 37.546667-34.133333s-17.066667-34.133333-40.96-34.133334z"  horiz-adv-x="1024" />

    
    <glyph glyph-name="fenxiang" unicode="&#58965;" d="M993.10666165 285.94004291c-18.38624258 0-30.64373596-12.25749505-30.64373596-30.64373596v-229.82802307c0-39.83685809-33.70811057-73.54496699-73.54496699-73.54496698H150.40390927c-39.83685809 0-73.54496699 33.70811057-73.54496698 73.54496698v643.51846526c0 39.83685809 33.70811057 73.54496699 73.54496698 73.54496698h235.9567706c18.38624258 0 30.64373596 12.25749505 30.64373764 30.64373597s-12.25749505 30.64373596-30.64373764 30.64373764h-235.9567706c-73.54496699 0-134.83244059-61.2874736-134.83243891-134.83244059v-643.51846526c0-73.54496699 61.2874736-134.83244059 134.83243891-134.83244058h741.57842237c73.54496699 0 134.83244059 61.2874736 134.83244058 134.83244058v229.82802307c-3.06437292 18.38624258-15.32186798 30.64373596-33.70811057 30.64373596zM818.43736466 865.10666165c-12.25749505 12.25749505-30.64373596 12.25749505-42.90123103 0s-12.25749505-30.64373596 0-42.90123102l150.15430857-150.15430856h-162.41180362c-300.30861712-36.77248349-376.9179587-229.82802307-395.30419961-505.62165009 0-18.38624258 12.25749505-30.64373596 27.57936304-33.70811056h3.06437291c15.32186798 0 30.64373596 12.25749505 30.64373596 27.57936304 18.38624258 260.47175903 82.73808912 416.75481513 340.14547523 450.46292569h168.54055114L787.79362869 460.60934159c-12.25749505-12.25749505-12.25749505-30.64373596 0-42.90123102 6.12874753-6.12874753 15.32186798-9.19312045 21.45061551-9.19312214s15.32186798 3.06437292 21.45061551 9.19312214l174.66929699 174.66929699c12.25749505 12.25749505 18.38624258 27.57936304 18.38624259 42.90123102s-6.12874753 30.64373596-18.38624259 42.90123102L818.43736466 865.10666165z"  horiz-adv-x="1024" />

    
    <glyph glyph-name="hyzx" unicode="&#58952;" d="M0.512 606.784l3.776 10.88a74.496 74.496 0 0 0 66.688 51.072c28.352 1.92 56.96-14.72 70.144-40.832 13.44-26.688 9.6-58.24-9.92-81.408l-7.168-8.256L288.64 437.568c20.736-12.736 41.408-25.6 62.336-38.016 11.776-7.04 20.928-4.928 27.392 6.784 62.912 114.368 125.632 228.864 188.928 344.32-27.52 13.888-44.992 35.072-46.592 66.56a71.04 71.04 0 0 0 22.4 56.384 74.304 74.304 0 0 0 109.184-6.144c31.168-38.4 20.032-83.328-29.76-117.248l48.896-89.088 136.576-248.96c10.496-19.136 17.28-20.928 35.84-9.6l211.584 129.472 10.176 6.528c-14.528 14.464-23.808 31.104-24.96 51.328a73.856 73.856 0 0 0 60.8 77.504 74.24 74.24 0 0 0 84.736-51.904c0.896-2.944 1.984-5.76 3.008-8.704v-25.472c-12.096-38.4-36.672-60.8-78.912-61.056-1.408-4.416-3.008-8.704-4.288-13.12l-123.776-424.768c-5.376-18.368-11.84-23.36-30.528-23.36l-712.576-0.064c-19.968 0-26.24 4.736-31.68 23.36L107.008 427.072 79.616 520.3199999999999c-31.552 0-55.424 12.416-70.4 39.808-3.584 6.656-5.824 14.08-8.704 21.12v25.6zM594.816-15.231999999999971h333.056c29.696-0.064 53.44-20.992 56.704-49.28a55.872 55.872 0 0 0-56.704-62.08H261.76a55.808 55.808 0 0 0-54.144 38.016c-7.616 22.848-0.64 48.64 19.84 61.632 10.432 6.592 24.256 11.136 36.608 11.264 110.208 0.832 220.48 0.512 330.752 0.512v-0.064z"  horiz-adv-x="1216" />

    
    <glyph glyph-name="dian" unicode="&#58939;" d="M782.96466015 881.03351941L194.11277748 373.02636089l315.64807585-100.65480059-246.49788681-385.40507971 630.03276326 466.55442489-330.96408178 97.42654577"  horiz-adv-x="1024" />

    
    <glyph glyph-name="mayihuabei" unicode="&#58884;" d="M512-128C229.239467-128 0 101.23946699999999 0 384 0 666.760533 229.239467 896 512 896c282.760533 0 512-229.239467 512-512 0-282.760533-229.239467-512-512-512z m21.7088 684.919467c37.0688-8.260267 72.704 6.929067 79.530667 33.9968 6.894933 26.999467-17.6128 55.6032-54.6816 63.8976-37.102933 8.260267-72.704-6.9632-79.530667-33.9968-6.8608-27.0336 17.6128-55.637333 54.6816-63.8976z m162.269867 169.301333c-85.1968 50.824533-131.9936 36.898133-131.2768 1.4336 0.546133-26.5216 24.746667-33.0752 46.216533-43.349333 72.977067-34.986667 112.3328-88.6784 92.330667-132.266667-18.397867-40.004267-86.698667-54.101333-157.422934-28.603733-72.3968 26.077867-167.355733 88.2688-180.1216 18.1248-10.786133-59.221333 79.121067-61.952 174.455467-158.071467 46.4896-46.830933 57.002667-143.428267 7.099733-196.437333-52.736-56.1152-182.510933-39.185067-242.961066 29.013333-118.784 133.973333-40.209067 256.853333-23.3472 287.061333 13.141333 23.108267 19.8656 38.434133 19.626666 57.002667-0.341333 30.0032-21.333333 49.698133-50.414933 51.438933-34.679467 2.048-60.893867-19.524267-75.3664-51.985066-151.108267-338.670933 174.830933-638.498133 465.5104-527.5648 290.816 111.0016 344.576 521.898667 55.637333 694.203733z"  horiz-adv-x="1024" />

    
    <glyph glyph-name="dw" unicode="&#58973;" d="M512.11377778 813.51111111c-163.15733333 0-295.48088889-132.32355555-295.48088889-295.48088889 0-282.05511111 295.48088889-481.39377778 295.48088889-481.39377777s295.48088889 199.33866667 295.48088889 481.39377777c0 163.27111111-132.32355555 295.48088889-295.48088889 295.48088889z m0-726.24355556S250.88 263.50933333 250.88 513.024c0 144.27022222 116.96355555 261.23377778 261.23377778 261.23377778s261.23377778-116.96355555 261.23377777-261.23377778c0-249.40088889-261.23377778-425.75644445-261.23377777-425.75644445zM802.816 227.66933332999997c-1.82044445-8.87466667 3.52711111-17.63555555 12.40177778-19.91111111C903.05422222 185.34400000000005 958.00888889 153.37244445 958.00888889 117.75999999999999c0-67.69777778-199.22488889-122.53866667-445.09866667-122.53866667S67.81155555 50.06222221999997 67.81155555 117.75999999999999c0 34.70222222 52.224 65.99111111 136.30577778 88.29155555 9.32977778 2.50311111 14.90488889 11.94666667 12.51555556 21.27644445-2.38933333 9.32977778-11.94666667 14.79111111-21.16266667 12.17422222-101.94488889-29.58222222-166.34311111-73.15911111-166.34311111-121.62844444 0-89.088 216.63288889-161.22311111 483.78311111-161.22311111S996.69333333 28.78577777999999 996.69333333 117.87377777999995c0 49.37955555-66.67377778 93.63911111-171.80444444 123.22133333-9.78488889 2.73066667-20.02488889-3.41333333-22.07288889-13.42577778zM511.43111111 630.8977777800001c-60.30222222 0-109.22666667-48.92444445-109.22666666-109.22666667s48.92444445-109.22666667 109.22666666-109.22666666 109.22666667 48.92444445 109.22666667 109.22666666-48.92444445 109.22666667-109.22666667 109.22666667z m0-179.76888889c-38.912 0-70.54222222 31.63022222-70.54222222 70.54222222s31.63022222 70.54222222 70.54222222 70.54222222 70.54222222-31.63022222 70.54222222-70.54222222-31.63022222-70.54222222-70.54222222-70.54222222z"  horiz-adv-x="1024" />

    
    <glyph glyph-name="luxiangji" unicode="&#59130;" d="M989.86666667 42.66666667000004c-8.53333333 0-17.06666667 3.41333333-23.89333334 10.24l-102.4 100.69333333c-13.65333333 13.65333333-13.65333333 34.13333333 0 47.78666667 13.65333333 13.65333333 34.13333333 13.65333333 47.78666667 0l44.37333333-42.66666667v452.26666667l-44.37333333-42.66666667c-13.65333333-13.65333333-35.84-13.65333333-47.78666667 0-13.65333333 13.65333333-13.65333333 35.84 0 47.78666667l102.4 100.69333333c10.24 10.24 23.89333333 11.94666667 37.54666667 6.82666667 11.94666667-5.12 20.48-17.06666667 20.48-30.72v-614.4c0-13.65333333-8.53333333-25.6-20.48-30.72-5.12-3.41333333-8.53333333-5.12-13.65333333-5.12z m-307.2-34.13333334H102.4c-56.32 0-102.4 46.08-102.4 102.4V657.06666667c0 56.32 46.08 102.4 102.4 102.4h580.26666667c56.32 0 102.4-46.08 102.4-102.4v-546.13333334c0-56.32-46.08-102.4-102.4-102.4zM102.4 691.2c-18.77333333 0-34.13333333-15.36-34.13333333-34.13333333v-546.13333334c0-18.77333333 15.36-34.13333333 34.13333333-34.13333333h580.26666667c18.77333333 0 34.13333333 15.36 34.13333333 34.13333333V657.06666667c0 18.77333333-15.36 34.13333333-34.13333333 34.13333333H102.4z"  horiz-adv-x="1024" />

    
    <glyph glyph-name="ranqi" unicode="&#58897;" d="M833.2 679.8240000000001c-144.272-45.52-166.4-159.28-166.4-227.552C566.864 566.048 566.864 702.576 566.864 896 256.16 770.848 333.824 429.52 322.736 315.72799999999995c-77.68 68.272-99.872 227.568-99.872 227.568C134.096 497.776 89.712 384 89.712 292.976 89.712 65.42399999999998 278.4-128 511.392-128c2 0 3.968 0.128 5.952 0.144-97.76 3.056-183.52 92.64-183.52 193.28 11.104 102.4 166.4 182.048 166.4 273.072C644.544 281.6 611.2 122.30399999999997 611.2 76.79999999999995c33.28 34.128 44.368 102.4 44.368 102.4 33.296-22.752 55.488-68.272 55.488-113.776 0-95.648-77.456-181.36-169.072-192.24 218.688 15.184 391.008 191.44 391.008 419.792 0.064 136.544-99.792 204.8-99.792 386.848z"  horiz-adv-x="1024" />

    
    <glyph glyph-name="changjiantou-zuo" unicode="&#59349;" d="M997.45185185 438.00651852v-107.89167407c0-5.21860741-1.69908148-9.58767408-5.09724444-12.86447408-3.39816297-3.39816297-7.64586667-5.09724445-12.86447408-5.09724445H278.3762963v-125.85339259c0-7.88859259-3.51952592-13.34992592-10.67994075-16.26263703-7.03905185-2.91271111-13.71401482-2.06317037-19.6608 2.79134815L32.25220741 369.43644444999995c-3.76225185 3.76225185-5.70405925 8.00995555-5.70405926 12.86447407 0 5.21860741 1.94180741 9.70903703 5.70405926 13.47128889l215.78334814 198.91389629c6.06814815 5.21860741 12.50038518 6.43223703 19.6608 3.39816297 7.03905185-3.39816297 10.67994075-8.8594963 10.67994075-16.26263704v-125.8533926h701.11383703c5.21860741 0 9.58767408-1.69908148 12.86447408-5.09724444 3.39816297-3.2768 5.09724445-7.64586667 5.09724444-12.86447407z"  horiz-adv-x="1024" />

    
    <glyph glyph-name="wodeda" unicode="&#59709;" d="M522.84052148 225.16280114000006c486.35054864 0 481.46053145-305.06640135 481.46053146-305.06640134 3.68224266-27.69046084-16.02511757-50.13740926-44.09853253-50.13741065H85.4490637c-28.0439561 0-48.87071841 22.77098619-44.09853252 50.13741065 0 0-4.8605597 305.06640135 481.4899903 305.06640134zM522.72268882 884.78493895h304.44778465v-304.44778467c0-168.14590804-136.30187662-304.44778467-304.44778465-304.44778466-168.14590804 0-304.44778467 136.30187662-304.44778468 304.44778466C218.27490414 748.48306095 354.57678215 884.78493895 522.72268882 884.78493895z"  horiz-adv-x="1024" />

    
    <glyph glyph-name="caidan1" unicode="&#58893;" d="M119.02672592 389.82542222m-111.0471111 0a111.04711111 111.04711111 0 1 1 222.09422221 0 111.04711111 111.04711111 0 1 1-222.09422221 0ZM517.09724445 389.82542222m-111.04711112 0a111.04711111 111.04711111 0 1 1 222.09422222 0 111.04711111 111.04711111 0 1 1-222.09422222 0ZM905.82281482 389.82542222m-111.04711112 0a111.04711111 111.04711111 0 1 1 222.09422222 0 111.04711111 111.04711111 0 1 1-222.09422222 0Z"  horiz-adv-x="1024" />

    
    <glyph glyph-name="zuojiantou" unicode="&#59045;" d="M691-109.89999999999998L261.1 320c-17.3 17.3-26.7 40.2-26.7 64.7s9.5 47.4 26.7 64.7L691 879.2c22.3 22.3 58.5 22.3 80.8 0 22.3-22.3 22.3-58.5 0-80.8L358.1 384.6l413.8-413.8c22.3-22.3 22.3-58.5 0-80.8-11.2-11.2-25.8-16.7-40.5-16.7-14.6 0.1-29.2 5.6-40.4 16.8z m0 0"  horiz-adv-x="1024" />

    
    <glyph glyph-name="meishi" unicode="&#58892;" d="M240.1 889.8c-98-6.7-162.5-142.6-190.3-267.6-27.4-123.7 15.7-173.1 128.7-259.4V-126h130.8V363.4c104 91 146.8 130.9 123.3 258.2C407.1 759.7 332.6 896 240.1 889.8zM283.9 382l-5.2-4.6v-472.7h-69.5V378l-6.1 4.6C92.2 466.8 55.5 506.1 79.8 615.6 104 724.5 161 853.6 242.2 859.2c70.9 4.2 137.9-122.4 160.2-243.1 20.9-112.3-11.5-140.5-118.5-234.1zM948.7 859.3v-296.1c0-80.2-35.3-165.9-134.2-165.9h-15.3v-499.9h-72.8V397.3H711c-92.7 0-134.2 77.5-134.2 154.4V859.3h-30.7v-307.6c0-103.1 60.7-176.8 149.5-184.4v-494.6h134.2V367.29999999999995c91.4 7.5 149.5 82.7 149.5 195.9V859.3h-30.6zM676.5 874.7h61.3v-272.1h-61.3zM799.1 771.3h57.5v-264.6h-57.5zM676.5 529.7h46v-23h-46zM799.1 874.7h57.5v-30.5h-57.5z"  horiz-adv-x="1024" />

    
    <glyph glyph-name="nv" unicode="&#58968;" d="M716.8 179.20000000000005H563.2v106.95111111c145.18044445 24.46222222 256 150.41422222 256 302.64888889 0 169.64266667-137.55733333 307.2-307.2 307.2S204.8 758.44266667 204.8 588.8c0-152.12088889 110.81955555-278.18666667 256-302.64888889v-106.95111111H307.2c-28.33066667 0-51.2-22.86933333-51.2-51.2s22.86933333-51.2 51.2-51.2h153.6v-153.6c0-28.33066667 22.86933333-51.2 51.2-51.2s51.2 22.86933333 51.2 51.2V76.79999999999995h153.6c28.33066667 0 51.2 22.86933333 51.2 51.2s-22.86933333 51.2-51.2 51.2zM307.2 588.8c0 113.09511111 91.70488889 204.8 204.8 204.8s204.8-91.70488889 204.8-204.8-91.70488889-204.8-204.8-204.8-204.8 91.70488889-204.8 204.8z"  horiz-adv-x="1024" />

    
    <glyph glyph-name="jiahao" unicode="&#58908;" d="M938.67981431 313.30094986999995H586.8415726v-351.97632581c0-38.80162713-31.48317076-70.42288197-70.42288197-70.42288198-38.80162713 0-70.42288197 31.48317076-70.42288198 70.42288198V313.30094986999995H94.15756695c-38.80162713 0-70.42288197 31.48317076-70.42288197 70.42288197 0 38.80162713 31.48317076 70.42288197 70.42288197 70.42288196h351.8382417V805.98495553c0 38.80162713 31.48317076 70.42288197 70.42288198 70.42288196s70.42288197-31.48317076 70.42288197-70.42288196v-351.9763258H938.67981431c38.9397112 0 70.42288197-31.48317076 70.42288199-70.42288198 0-38.80162713-31.48317076-70.2847979-70.42288199-70.28479788z"  horiz-adv-x="1024" />

    
    <glyph glyph-name="jiahaoyou" unicode="&#59029;" d="M84.26666667-112.10666666999998c-22.61333333 0-40.96 18.34666667-40.96 40.96 0 60.8 11.94666667 119.78666667 35.41333333 175.36 22.72 53.65333333 55.14666667 101.86666667 96.53333333 143.25333334 41.38666667 41.38666667 89.49333333 73.81333333 143.25333334 96.53333333 55.57333333 23.46666667 114.56 35.41333333 175.36 35.41333333 84.26666667 0 166.4-23.36 237.65333333-67.73333333 19.2-11.94666667 25.06666667-37.22666667 13.12-56.42666667s-37.22666667-25.06666667-56.42666667-13.12c-58.13333333 36.26666667-125.44 55.36-194.34666666 55.36-98.45333333 0-191.04-38.4-260.69333334-107.94666666S125.22666667 27.306666670000027 125.22666667-71.14666666999995c0-22.61333333-18.34666667-40.96-40.96-40.96zM493.86666667 315.73333333000005c-72.96 0-141.54666667 28.37333333-193.06666667 80-51.52 51.52-80 120.10666667-80 193.06666667s28.37333333 141.54666667 80 193.06666667c51.52 51.52 120.10666667 80 193.06666667 80s141.54666667-28.37333333 193.06666666-80c51.52-51.52 80-120.10666667 80-193.06666667s-28.37333333-141.54666667-80-193.06666667-120.10666667-80-193.06666666-80z m0 464.21333334c-51.09333333 0-99.09333333-19.84-135.14666667-56s-56-84.05333333-56-135.14666667c0-51.09333333 19.84-99.09333333 56-135.14666667 36.05333333-36.05333333 84.05333333-56 135.14666667-56 51.09333333 0 99.09333333 19.84 135.14666666 56 36.05333333 36.05333333 56 84.05333333 56 135.14666667 0 51.09333333-19.84 99.09333333-56 135.14666667-36.05333333 36.16-84.05333333 56-135.14666666 56zM812.48-112.21333332999995c-22.61333333 0-40.96 18.34666667-40.96 40.96V24.533333330000005h-95.57333333c-22.61333333 0-40.96 18.34666667-40.96 40.96s18.34666667 40.96 40.96 40.96h95.57333333v95.57333334c0 22.61333333 18.34666667 40.96 40.96 40.96s40.96-18.34666667 40.96-40.96v-95.57333334h95.57333333c22.61333333 0 40.96-18.34666667 40.96-40.96S971.62666667 24.533333330000005 949.01333333 24.533333330000005h-95.57333333v-95.78666666c0-22.72-18.34666667-40.96-40.96-40.96z"  horiz-adv-x="1024" />

    
    <glyph glyph-name="shuaxin" unicode="&#59047;" d="M512-23.55200000000002c-224.768 0-407.552 182.784-407.552 407.552 0 8.704 0.512 17.408 1.024 26.112l71.68-4.608c-0.512-7.168-0.512-14.336-0.512-21.504 0-185.344 150.528-335.872 335.872-335.872 86.528 0 168.448 32.768 230.912 92.16l49.152-52.224c-76.288-72.192-175.616-111.616-280.576-111.616zM919.552 384h-71.68c0 11.776-0.512 23.552-2.048 35.328-17.92 171.52-161.28 300.544-334.336 300.544-67.584 0-132.096-19.968-187.904-57.344L284.16 721.92C351.232 767.488 430.08 791.552 512 791.552c209.408 0 384-156.672 405.504-365.056 1.536-13.824 2.048-28.16 2.048-42.496zM140.288 605.184L28.16 404.48c-3.072-5.12 1.024-11.776 6.656-11.776h223.744c6.144 0 9.728 6.144 6.656 11.776L153.6 605.184c-3.072 5.632-10.752 5.632-13.312 0zM870.4 220.15999999999997l-112.128 200.704c-3.072 5.12 1.024 11.776 6.656 11.776h223.744c6.144 0 9.728-6.144 6.656-11.776L883.712 220.15999999999997c-2.56-5.12-10.24-5.12-13.312 0zM270.336 693.76a35.84 35.84 0 1 1 71.68 0 35.84 35.84 0 1 1-71.68 0ZM728.576 111.10400000000004a35.84 35.84 0 1 1 71.68 0 35.84 35.84 0 1 1-71.68 0Z"  horiz-adv-x="1024" />

    
    </font>
</defs>
</svg>
